<?xml version="1.0" encoding="UTF-8"?>
<!DOCTYPE svg PUBLIC "-//W3C//DTD SVG 1.1//EN"
    "http://www.w3.org/Graphics/SVG/1.1/DTD/svg11.dtd"><svg xmlns="http://www.w3.org/2000/svg" height="600.0000" stroke-opacity="1" viewBox="0 0 800 600" font-size="1" width="800.0000" xmlns:xlink="http://www.w3.org/1999/xlink" stroke="rgb(0,0,0)" version="1.1"><defs></defs><g stroke-linejoin="bevel" stroke-opacity="0.0" fill-opacity="1.0" stroke="rgb(0,0,0)" stroke-width="0.0" fill="rgb(255,255,255)" stroke-linecap="butt" stroke-miterlimit="10.0"><path d="M 0.0000,0.0000 v 600.0000 h 800.0000 v -600.0000 Z"/></g><g stroke-linejoin="bevel" stroke-opacity="0.0" fill-opacity="1.0" stroke="rgb(0,0,0)" stroke-width="0.0" fill="rgb(0,0,0)" stroke-linecap="butt" stroke-miterlimit="10.0"><path d="M 307.3511,14.1016 ZM 308.5370,4.0606 h 2.3255 l 2.6181,4.9897 l 0.9856,2.2177 h 0.0616 c -0.0770,-0.8008 -0.1771,-1.7864 -0.1771 -1.7864c -0.1001,-0.9856 -0.1001,-1.8789 -0.1001 -1.8789v -3.5421 h 2.1561 v 10.0411 h -2.3255 l -2.6181,-5.0051 l -0.9856,-2.1869 h -0.0616 c 0.0770,0.8316 0.1771,1.7864 0.1771 1.7864c 0.1001,0.9548 0.1001,1.8480 0.1001 1.8480v 3.5575 h -2.1561 v -10.0411 ZM 317.5924,14.1016 ZM 318.1468,10.2823 c 0.0000,-0.9240 0.3080,-1.6709 0.3080 -1.6709c 0.3080,-0.7469 0.8085,-1.2628 0.8085 -1.2628c 0.5005,-0.5159 1.1473,-0.7931 1.1473 -0.7931c 0.6468,-0.2772 1.3398,-0.2772 1.3398 -0.2772c 0.8162,0.0000 1.4245,0.2772 1.4245 0.2772c 0.6083,0.2772 1.0164,0.7700 1.0164 0.7700c 0.4081,0.4928 0.6083,1.1627 0.6083 1.1627c 0.2002,0.6699 0.2002,1.4553 0.2002 1.4553c 0.0000,0.3080 -0.0308,0.5621 -0.0308 0.5621c -0.0308,0.2541 -0.0616,0.3927 -0.0616 0.3927h -4.5739 c 0.1540,0.8778 0.6853,1.2705 0.6853 1.2705c 0.5313,0.3927 1.3013,0.3927 1.3013 0.3927c 0.8162,0.0000 1.6478,-0.5082 1.6478 -0.5082l 0.7546,1.3706 c -0.5852,0.4004 -1.3013,0.6314 -1.3013 0.6314c -0.7161,0.2310 -1.4091,0.2310 -1.4091 0.2310c -0.8162,-0.0000 -1.5246,-0.2695 -1.5246 -0.2695c -0.7084,-0.2695 -1.2320,-0.7854 -1.2320 -0.7854c -0.5236,-0.5159 -0.8162,-1.2551 -0.8162 -1.2551c -0.2926,-0.7392 -0.2926,-1.6940 -0.2926 -1.6940ZM 318.1468,10.2823 ZM 323.0749,9.4969 c 0.0000,-0.6622 -0.2926,-1.0780 -0.2926 -1.0780c -0.2926,-0.4158 -0.9856,-0.4158 -0.9856 -0.4158c -0.5390,-0.0000 -0.9471,0.3619 -0.9471 0.3619c -0.4081,0.3619 -0.5313,1.1319 -0.5313 1.1319h 2.7567 ZM 325.2926,14.1016 ZM 326.6016,8.2341 h -1.0472 v -1.6786 l 1.1704,-0.0924 l 0.2618,-2.0329 h 1.8789 v 2.0329 h 1.8326 v 1.7710 h -1.8326 v 3.0647 c 0.0000,0.6468 0.2695,0.9317 0.2695 0.9317c 0.2695,0.2849 0.7161,0.2849 0.7161 0.2849c 0.1848,0.0000 0.3773,-0.0462 0.3773 -0.0462c 0.1925,-0.0462 0.3465,-0.1078 0.3465 -0.1078l 0.3542,1.6478 c -0.3080,0.0924 -0.7238,0.1848 -0.7238 0.1848c -0.4158,0.0924 -0.9702,0.0924 -0.9702 0.0924c -0.7084,-0.0000 -1.2089,-0.2156 -1.2089 -0.2156c -0.5005,-0.2156 -0.8162,-0.6006 -0.8162 -0.6006c -0.3157,-0.3850 -0.4620,-0.9317 -0.4620 -0.9317c -0.1463,-0.5467 -0.1463,-1.2089 -0.1463 -1.2089v -3.0955 ZM 331.1910,14.1016 ZM 331.5606,6.4630 h 2.2485 l 0.7392,3.5421 c 0.0924,0.5698 0.1694,1.1242 0.1694 1.1242c 0.0770,0.5544 0.1694,1.1396 0.1694 1.1396h 0.0616 c 0.1078,-0.5852 0.2079,-1.1550 0.2079 -1.1550c 0.1001,-0.5698 0.2387,-1.1088 0.2387 -1.1088l 0.8470,-3.5421 h 1.9559 l 0.8624,3.5421 c 0.1386,0.5698 0.2464,1.1242 0.2464 1.1242c 0.1078,0.5544 0.2310,1.1396 0.2310 1.1396h 0.0616 c 0.1078,-0.5852 0.1771,-1.1396 0.1771 -1.1396c 0.0693,-0.5544 0.1771,-1.1242 0.1771 -1.1242l 0.7238,-3.5421 h 2.0945 l -1.8326,7.6386 h -2.6489 l -0.6930,-3.0493 c -0.1232,-0.5390 -0.2156,-1.0780 -0.2156 -1.0780c -0.0924,-0.5390 -0.2002,-1.1550 -0.2002 -1.1550h -0.0616 c -0.1078,0.6160 -0.1925,1.1550 -0.1925 1.1550c -0.0847,0.5390 -0.1925,1.0780 -0.1925 1.0780l -0.6776,3.0493 h -2.5873 ZM 343.0185,14.1016 ZM 343.5729,10.2823 c 0.0000,-0.9548 0.3080,-1.7017 0.3080 -1.7017c 0.3080,-0.7469 0.8239,-1.2551 0.8239 -1.2551c 0.5159,-0.5082 1.1935,-0.7777 1.1935 -0.7777c 0.6776,-0.2695 1.4014,-0.2695 1.4014 -0.2695c 0.7238,0.0000 1.3937,0.2695 1.3937 0.2695c 0.6699,0.2695 1.1858,0.7777 1.1858 0.7777c 0.5159,0.5082 0.8239,1.2551 0.8239 1.2551c 0.3080,0.7469 0.3080,1.7017 0.3080 1.7017c 0.0000,0.9548 -0.3080,1.7017 -0.3080 1.7017c -0.3080,0.7469 -0.8239,1.2551 -0.8239 1.2551c -0.5159,0.5082 -1.1858,0.7777 -1.1858 0.7777c -0.6699,0.2695 -1.3937,0.2695 -1.3937 0.2695c -0.7238,-0.0000 -1.4014,-0.2695 -1.4014 -0.2695c -0.6776,-0.2695 -1.1935,-0.7777 -1.1935 -0.7777c -0.5159,-0.5082 -0.8239,-1.2551 -0.8239 -1.2551c -0.3080,-0.7469 -0.3080,-1.7017 -0.3080 -1.7017ZM 343.5729,10.2823 ZM 345.8984,10.2823 c 0.0000,1.0010 0.3465,1.5862 0.3465 1.5862c 0.3465,0.5852 1.0549,0.5852 1.0549 0.5852c 0.6930,0.0000 1.0472,-0.5852 1.0472 -0.5852c 0.3542,-0.5852 0.3542,-1.5862 0.3542 -1.5862c 0.0000,-1.0010 -0.3542,-1.5862 -0.3542 -1.5862c -0.3542,-0.5852 -1.0472,-0.5852 -1.0472 -0.5852c -0.7084,-0.0000 -1.0549,0.5852 -1.0549 0.5852c -0.3465,0.5852 -0.3465,1.5862 -0.3465 1.5862ZM 351.5657,14.1016 ZM 352.5667,6.4630 h 1.8480 l 0.1540,1.3398 h 0.0616 c 0.4158,-0.7854 1.0010,-1.1550 1.0010 -1.1550c 0.5852,-0.3696 1.1704,-0.3696 1.1704 -0.3696c 0.3234,0.0000 0.5313,0.0385 0.5313 0.0385c 0.2079,0.0385 0.3773,0.1155 0.3773 0.1155l -0.3696,1.9559 c -0.2156,-0.0616 -0.4004,-0.0924 -0.4004 -0.0924c -0.1848,-0.0308 -0.4312,-0.0308 -0.4312 -0.0308c -0.4312,-0.0000 -0.9009,0.3080 -0.9009 0.3080c -0.4697,0.3080 -0.7777,1.0934 -0.7777 1.0934v 4.4353 h -2.2639 v -7.6386 ZM 357.6951,14.1016 ZM 358.6961,3.3060 h 2.2023 v 6.1910 h 0.0616 l 2.4179,-3.0339 h 2.4641 l -2.6797,3.1417 l 2.8799,4.4969 h -2.4487 l -1.7248,-2.9723 l -0.9702,1.0934 v 1.8789 h -2.2023 v -10.7957 ZM 369.3378,14.1016 ZM 372.4795,5.9702 h -2.7567 v -1.9097 h 7.7926 v 1.9097 h -2.7567 v 8.1314 h -2.2793 v -8.1314 ZM 377.9004,14.1016 ZM 378.9014,3.3060 h 2.2639 v 2.6489 l -0.1078,1.3706 c 0.4312,-0.3850 1.0010,-0.7161 1.0010 -0.7161c 0.5698,-0.3311 1.3552,-0.3311 1.3552 -0.3311c 1.2474,0.0000 1.8095,0.8162 1.8095 0.8162c 0.5621,0.8162 0.5621,2.2639 0.5621 2.2639v 4.7433 h -2.2639 v -4.4507 c 0.0000,-0.8316 -0.2233,-1.1396 -0.2233 -1.1396c -0.2233,-0.3080 -0.7161,-0.3080 -0.7161 -0.3080c -0.4312,-0.0000 -0.7392,0.1925 -0.7392 0.1925c -0.3080,0.1925 -0.6776,0.5467 -0.6776 0.5467v 5.1591 h -2.2639 v -10.7957 ZM 386.6940,14.1016 ZM 387.6951,6.4630 h 1.8480 l 0.1540,1.3398 h 0.0616 c 0.4158,-0.7854 1.0010,-1.1550 1.0010 -1.1550c 0.5852,-0.3696 1.1704,-0.3696 1.1704 -0.3696c 0.3234,0.0000 0.5313,0.0385 0.5313 0.0385c 0.2079,0.0385 0.3773,0.1155 0.3773 0.1155l -0.3696,1.9559 c -0.2156,-0.0616 -0.4004,-0.0924 -0.4004 -0.0924c -0.1848,-0.0308 -0.4312,-0.0308 -0.4312 -0.0308c -0.4312,-0.0000 -0.9009,0.3080 -0.9009 0.3080c -0.4697,0.3080 -0.7777,1.0934 -0.7777 1.0934v 4.4353 h -2.2639 v -7.6386 ZM 392.6694,14.1016 ZM 393.2238,10.2823 c 0.0000,-0.9548 0.3080,-1.7017 0.3080 -1.7017c 0.3080,-0.7469 0.8239,-1.2551 0.8239 -1.2551c 0.5159,-0.5082 1.1935,-0.7777 1.1935 -0.7777c 0.6776,-0.2695 1.4014,-0.2695 1.4014 -0.2695c 0.7238,0.0000 1.3937,0.2695 1.3937 0.2695c 0.6699,0.2695 1.1858,0.7777 1.1858 0.7777c 0.5159,0.5082 0.8239,1.2551 0.8239 1.2551c 0.3080,0.7469 0.3080,1.7017 0.3080 1.7017c 0.0000,0.9548 -0.3080,1.7017 -0.3080 1.7017c -0.3080,0.7469 -0.8239,1.2551 -0.8239 1.2551c -0.5159,0.5082 -1.1858,0.7777 -1.1858 0.7777c -0.6699,0.2695 -1.3937,0.2695 -1.3937 0.2695c -0.7238,-0.0000 -1.4014,-0.2695 -1.4014 -0.2695c -0.6776,-0.2695 -1.1935,-0.7777 -1.1935 -0.7777c -0.5159,-0.5082 -0.8239,-1.2551 -0.8239 -1.2551c -0.3080,-0.7469 -0.3080,-1.7017 -0.3080 -1.7017ZM 393.2238,10.2823 ZM 395.5493,10.2823 c 0.0000,1.0010 0.3465,1.5862 0.3465 1.5862c 0.3465,0.5852 1.0549,0.5852 1.0549 0.5852c 0.6930,0.0000 1.0472,-0.5852 1.0472 -0.5852c 0.3542,-0.5852 0.3542,-1.5862 0.3542 -1.5862c 0.0000,-1.0010 -0.3542,-1.5862 -0.3542 -1.5862c -0.3542,-0.5852 -1.0472,-0.5852 -1.0472 -0.5852c -0.7084,-0.0000 -1.0549,0.5852 -1.0549 0.5852c -0.3465,0.5852 -0.3465,1.5862 -0.3465 1.5862ZM 401.2166,14.1016 ZM 402.1407,6.4630 h 2.2639 v 4.4507 c 0.0000,0.8316 0.2310,1.1396 0.2310 1.1396c 0.2310,0.3080 0.7238,0.3080 0.7238 0.3080c 0.4312,0.0000 0.7238,-0.2002 0.7238 -0.2002c 0.2926,-0.2002 0.6314,-0.6468 0.6314 -0.6468v -5.0513 h 2.2639 v 7.6386 h -1.8480 l -0.1694,-1.0626 h -0.0462 c -0.4928,0.5852 -1.0549,0.9163 -1.0549 0.9163c -0.5621,0.3311 -1.3475,0.3311 -1.3475 0.3311c -1.2474,-0.0000 -1.8095,-0.8162 -1.8095 -0.8162c -0.5621,-0.8162 -0.5621,-2.2639 -0.5621 -2.2639v -4.7433 ZM 409.9641,14.1016 ZM 412.3511,15.0565 c 0.0000,0.4312 0.4620,0.6545 0.4620 0.6545c 0.4620,0.2233 1.2320,0.2233 1.2320 0.2233c 0.7700,0.0000 1.2628,-0.2695 1.2628 -0.2695c 0.4928,-0.2695 0.4928,-0.6699 0.4928 -0.6699c 0.0000,-0.3542 -0.3003,-0.4774 -0.3003 -0.4774c -0.3003,-0.1232 -0.8701,-0.1232 -0.8701 -0.1232h -0.7854 c -0.4004,-0.0000 -0.6468,-0.0231 -0.6468 -0.0231c -0.2464,-0.0231 -0.4312,-0.0693 -0.4312 -0.0693c -0.4158,0.3696 -0.4158,0.7546 -0.4158 0.7546ZM 412.3511,15.0565 ZM 410.4877,15.4107 c 0.0000,-0.9240 1.0934,-1.5400 1.0934 -1.5400v -0.0616 c -0.3080,-0.2002 -0.5082,-0.5082 -0.5082 -0.5082c -0.2002,-0.3080 -0.2002,-0.7854 -0.2002 -0.7854c 0.0000,-0.4158 0.2464,-0.7931 0.2464 -0.7931c 0.2464,-0.3773 0.6160,-0.6391 0.6160 -0.6391v -0.0616 c -0.4004,-0.2772 -0.7161,-0.7931 -0.7161 -0.7931c -0.3157,-0.5159 -0.3157,-1.1935 -0.3157 -1.1935c 0.0000,-0.6930 0.2618,-1.2089 0.2618 -1.2089c 0.2618,-0.5159 0.7007,-0.8624 0.7007 -0.8624c 0.4389,-0.3465 1.0087,-0.5159 1.0087 -0.5159c 0.5698,-0.1694 1.1858,-0.1694 1.1858 -0.1694c 0.6776,0.0000 1.1858,0.1848 1.1858 0.1848h 2.7875 v 1.6478 h -1.2166 c 0.1078,0.1694 0.1771,0.4312 0.1771 0.4312c 0.0693,0.2618 0.0693,0.5698 0.0693 0.5698c 0.0000,0.6622 -0.2310,1.1473 -0.2310 1.1473c -0.2310,0.4851 -0.6391,0.8008 -0.6391 0.8008c -0.4081,0.3157 -0.9548,0.4697 -0.9548 0.4697c -0.5467,0.1540 -1.1781,0.1540 -1.1781 0.1540c -0.4466,-0.0000 -0.9240,-0.1540 -0.9240 -0.1540c -0.1540,0.1232 -0.2156,0.2464 -0.2156 0.2464c -0.0616,0.1232 -0.0616,0.3234 -0.0616 0.3234c 0.0000,0.2926 0.2541,0.4312 0.2541 0.4312c 0.2541,0.1386 0.9009,0.1386 0.9009 0.1386h 1.2320 c 1.4168,0.0000 2.1638,0.4543 2.1638 0.4543c 0.7469,0.4543 0.7469,1.4861 0.7469 1.4861c 0.0000,0.6006 -0.3003,1.1011 -0.3003 1.1011c -0.3003,0.5005 -0.8547,0.8624 -0.8547 0.8624c -0.5544,0.3619 -1.3398,0.5698 -1.3398 0.5698c -0.7854,0.2079 -1.7710,0.2079 -1.7710 0.2079c -0.6776,-0.0000 -1.2551,-0.1155 -1.2551 -0.1155c -0.5775,-0.1155 -1.0164,-0.3465 -1.0164 -0.3465c -0.4389,-0.2310 -0.6853,-0.6006 -0.6853 -0.6006c -0.2464,-0.3696 -0.2464,-0.8778 -0.2464 -0.8778ZM 410.4877,15.4107 ZM 413.8604,10.3131 c 0.4466,0.0000 0.7469,-0.3157 0.7469 -0.3157c 0.3003,-0.3157 0.3003,-0.9625 0.3003 -0.9625c 0.0000,-0.6006 -0.3003,-0.9163 -0.3003 -0.9163c -0.3003,-0.3157 -0.7469,-0.3157 -0.7469 -0.3157c -0.4466,-0.0000 -0.7469,0.3080 -0.7469 0.3080c -0.3003,0.3080 -0.3003,0.9240 -0.3003 0.9240c 0.0000,0.6468 0.3003,0.9625 0.3003 0.9625c 0.3003,0.3157 0.7469,0.3157 0.7469 0.3157ZM 418.1879,14.1016 ZM 419.1889,3.3060 h 2.2639 v 2.6489 l -0.1078,1.3706 c 0.4312,-0.3850 1.0010,-0.7161 1.0010 -0.7161c 0.5698,-0.3311 1.3552,-0.3311 1.3552 -0.3311c 1.2474,0.0000 1.8095,0.8162 1.8095 0.8162c 0.5621,0.8162 0.5621,2.2639 0.5621 2.2639v 4.7433 h -2.2639 v -4.4507 c 0.0000,-0.8316 -0.2233,-1.1396 -0.2233 -1.1396c -0.2233,-0.3080 -0.7161,-0.3080 -0.7161 -0.3080c -0.4312,-0.0000 -0.7392,0.1925 -0.7392 0.1925c -0.3080,0.1925 -0.6776,0.5467 -0.6776 0.5467v 5.1591 h -2.2639 v -10.7957 ZM 426.9815,14.1016 ZM 430.2464,14.7023 v 2.2331 h -2.2639 v -10.4723 h 1.8480 l 0.1540,0.7546 h 0.0616 c 0.4466,-0.4004 1.0087,-0.6699 1.0087 -0.6699c 0.5621,-0.2695 1.1627,-0.2695 1.1627 -0.2695c 0.6930,0.0000 1.2474,0.2772 1.2474 0.2772c 0.5544,0.2772 0.9394,0.7854 0.9394 0.7854c 0.3850,0.5082 0.5929,1.2243 0.5929 1.2243c 0.2079,0.7161 0.2079,1.5939 0.2079 1.5939c 0.0000,0.9856 -0.2695,1.7479 -0.2695 1.7479c -0.2695,0.7623 -0.7238,1.2936 -0.7238 1.2936c -0.4543,0.5313 -1.0318,0.8085 -1.0318 0.8085c -0.5775,0.2772 -1.1935,0.2772 -1.1935 0.2772c -0.4928,-0.0000 -0.9548,-0.2079 -0.9548 -0.2079c -0.4620,-0.2079 -0.8624,-0.5929 -0.8624 -0.5929ZM 430.2464,14.7023 ZM 430.2464,11.9456 c 0.3080,0.2772 0.6160,0.3850 0.6160 0.3850c 0.3080,0.1078 0.6006,0.1078 0.6006 0.1078c 0.5852,0.0000 1.0010,-0.5313 1.0010 -0.5313c 0.4158,-0.5313 0.4158,-1.7171 0.4158 -1.7171c 0.0000,-2.0637 -1.3244,-2.0637 -1.3244 -2.0637c -0.6622,-0.0000 -1.3090,0.6930 -1.3090 0.6930v 3.1263 ZM 435.8060,14.1016 ZM 436.7300,6.4630 h 2.2639 v 4.4507 c 0.0000,0.8316 0.2310,1.1396 0.2310 1.1396c 0.2310,0.3080 0.7238,0.3080 0.7238 0.3080c 0.4312,0.0000 0.7238,-0.2002 0.7238 -0.2002c 0.2926,-0.2002 0.6314,-0.6468 0.6314 -0.6468v -5.0513 h 2.2639 v 7.6386 h -1.8480 l -0.1694,-1.0626 h -0.0462 c -0.4928,0.5852 -1.0549,0.9163 -1.0549 0.9163c -0.5621,0.3311 -1.3475,0.3311 -1.3475 0.3311c -1.2474,-0.0000 -1.8095,-0.8162 -1.8095 -0.8162c -0.5621,-0.8162 -0.5621,-2.2639 -0.5621 -2.2639v -4.7433 ZM 444.5534,14.1016 ZM 445.8624,8.2341 h -1.0472 v -1.6786 l 1.1704,-0.0924 l 0.2618,-2.0329 h 1.8789 v 2.0329 h 1.8326 v 1.7710 h -1.8326 v 3.0647 c 0.0000,0.6468 0.2695,0.9317 0.2695 0.9317c 0.2695,0.2849 0.7161,0.2849 0.7161 0.2849c 0.1848,0.0000 0.3773,-0.0462 0.3773 -0.0462c 0.1925,-0.0462 0.3465,-0.1078 0.3465 -0.1078l 0.3542,1.6478 c -0.3080,0.0924 -0.7238,0.1848 -0.7238 0.1848c -0.4158,0.0924 -0.9702,0.0924 -0.9702 0.0924c -0.7084,-0.0000 -1.2089,-0.2156 -1.2089 -0.2156c -0.5005,-0.2156 -0.8162,-0.6006 -0.8162 -0.6006c -0.3157,-0.3850 -0.4620,-0.9317 -0.4620 -0.9317c -0.1463,-0.5467 -0.1463,-1.2089 -0.1463 -1.2089v -3.0955 ZM 453.6550,14.1016 ZM 456.7967,16.8583 c -0.9702,-1.5862 -1.5015,-3.2957 -1.5015 -3.2957c -0.5313,-1.7094 -0.5313,-3.7423 -0.5313 -3.7423c 0.0000,-2.0329 0.5313,-3.7423 0.5313 -3.7423c 0.5313,-1.7094 1.5015,-3.2957 1.5015 -3.2957l 1.4168,0.5852 c -0.8470,1.5092 -1.2320,3.1571 -1.2320 3.1571c -0.3850,1.6478 -0.3850,3.2957 -0.3850 3.2957c 0.0000,1.6478 0.3850,3.2957 0.3850 3.2957c 0.3850,1.6478 1.2320,3.1571 1.2320 3.1571l -1.4168,0.5852 h 0.0000 ZM 458.9528,14.1016 ZM 459.6612,9.1427 c 0.0000,-1.2474 0.3927,-2.2254 0.3927 -2.2254c 0.3927,-0.9779 1.0626,-1.6555 1.0626 -1.6555c 0.6699,-0.6776 1.5708,-1.0318 1.5708 -1.0318c 0.9009,-0.3542 1.9174,-0.3542 1.9174 -0.3542c 1.0626,0.0000 1.8403,0.4004 1.8403 0.4004c 0.7777,0.4004 1.2705,0.9086 1.2705 0.9086l -1.2474,1.4014 c -0.3696,-0.3542 -0.7777,-0.5544 -0.7777 -0.5544c -0.4081,-0.2002 -1.0549,-0.2002 -1.0549 -0.2002c -0.5852,-0.0000 -1.0703,0.2233 -1.0703 0.2233c -0.4851,0.2233 -0.8393,0.6391 -0.8393 0.6391c -0.3542,0.4158 -0.5467,1.0164 -0.5467 1.0164c -0.1925,0.6006 -0.1925,1.3552 -0.1925 1.3552c 0.0000,1.5554 0.7007,2.4102 0.7007 2.4102c 0.7007,0.8547 2.1176,0.8547 2.1176 0.8547c 0.3080,0.0000 0.6006,-0.0770 0.6006 -0.0770c 0.2926,-0.0770 0.4774,-0.2310 0.4774 -0.2310v -1.7248 h -1.6632 v -1.8480 h 3.6653 v 4.6201 c -0.5390,0.5082 -1.4168,0.8624 -1.4168 0.8624c -0.8778,0.3542 -1.9405,0.3542 -1.9405 0.3542c -1.0164,-0.0000 -1.9020,-0.3311 -1.9020 -0.3311c -0.8855,-0.3311 -1.5477,-0.9779 -1.5477 -0.9779c -0.6622,-0.6468 -1.0395,-1.6093 -1.0395 -1.6093c -0.3773,-0.9625 -0.3773,-2.2254 -0.3773 -2.2254ZM 468.7782,14.1016 ZM 469.7793,3.3060 h 2.2639 v 2.6489 l -0.0616,1.1704 c 0.4466,-0.4004 0.9625,-0.6237 0.9625 -0.6237c 0.5159,-0.2233 1.0549,-0.2233 1.0549 -0.2233c 0.6930,0.0000 1.2474,0.2772 1.2474 0.2772c 0.5544,0.2772 0.9471,0.7777 0.9471 0.7777c 0.3927,0.5005 0.6006,1.2166 0.6006 1.2166c 0.2079,0.7161 0.2079,1.5939 0.2079 1.5939c 0.0000,0.9856 -0.2695,1.7556 -0.2695 1.7556c -0.2695,0.7700 -0.7238,1.3013 -0.7238 1.3013c -0.4543,0.5313 -1.0318,0.8085 -1.0318 0.8085c -0.5775,0.2772 -1.1935,0.2772 -1.1935 0.2772c -0.5082,-0.0000 -1.0241,-0.2464 -1.0241 -0.2464c -0.5159,-0.2464 -0.9625,-0.7392 -0.9625 -0.7392h -0.0616 l -0.1848,0.8008 h -1.7710 v -10.7957 ZM 469.7793,3.3060 ZM 472.0431,11.9456 c 0.3080,0.2772 0.6160,0.3850 0.6160 0.3850c 0.3080,0.1078 0.6006,0.1078 0.6006 0.1078c 0.5852,0.0000 1.0010,-0.5313 1.0010 -0.5313c 0.4158,-0.5313 0.4158,-1.7171 0.4158 -1.7171c 0.0000,-2.0637 -1.3244,-2.0637 -1.3244 -2.0637c -0.6776,-0.0000 -1.3090,0.6930 -1.3090 0.6930v 3.1263 ZM 477.6027,14.1016 ZM 480.8984,3.1674 h 1.4784 l -3.0955,13.3984 h -1.4784 ZM 482.8234,14.1016 ZM 484.1632,11.8070 c 0.5236,0.4004 1.0010,0.6006 1.0010 0.6006c 0.4774,0.2002 0.9702,0.2002 0.9702 0.2002c 0.5082,0.0000 0.7392,-0.1694 0.7392 -0.1694c 0.2310,-0.1694 0.2310,-0.4774 0.2310 -0.4774c 0.0000,-0.1848 -0.1309,-0.3311 -0.1309 -0.3311c -0.1309,-0.1463 -0.3542,-0.2695 -0.3542 -0.2695c -0.2233,-0.1232 -0.5005,-0.2233 -0.5005 -0.2233c -0.2772,-0.1001 -0.5698,-0.2233 -0.5698 -0.2233c -0.3542,-0.1386 -0.7084,-0.3234 -0.7084 -0.3234c -0.3542,-0.1848 -0.6468,-0.4543 -0.6468 -0.4543c -0.2926,-0.2695 -0.4774,-0.6314 -0.4774 -0.6314c -0.1848,-0.3619 -0.1848,-0.8393 -0.1848 -0.8393c 0.0000,-0.5236 0.2079,-0.9702 0.2079 -0.9702c 0.2079,-0.4466 0.5929,-0.7546 0.5929 -0.7546c 0.3850,-0.3080 0.9240,-0.4851 0.9240 -0.4851c 0.5390,-0.1771 1.2012,-0.1771 1.2012 -0.1771c 0.8778,0.0000 1.5400,0.3003 1.5400 0.3003c 0.6622,0.3003 1.1550,0.6699 1.1550 0.6699l -1.0164,1.3552 c -0.4158,-0.3080 -0.8162,-0.4774 -0.8162 -0.4774c -0.4004,-0.1694 -0.8008,-0.1694 -0.8008 -0.1694c -0.8624,-0.0000 -0.8624,0.6006 -0.8624 0.6006c 0.0000,0.1848 0.1232,0.3157 0.1232 0.3157c 0.1232,0.1309 0.3311,0.2387 0.3311 0.2387c 0.2079,0.1078 0.4774,0.2079 0.4774 0.2079c 0.2695,0.1001 0.5621,0.2079 0.5621 0.2079c 0.3696,0.1386 0.7315,0.3157 0.7315 0.3157c 0.3619,0.1771 0.6622,0.4389 0.6622 0.4389c 0.3003,0.2618 0.4851,0.6391 0.4851 0.6391c 0.1848,0.3773 0.1848,0.9009 0.1848 0.9009c 0.0000,0.5236 -0.2002,0.9702 -0.2002 0.9702c -0.2002,0.4466 -0.6006,0.7777 -0.6006 0.7777c -0.4004,0.3311 -0.9856,0.5236 -0.9856 0.5236c -0.5852,0.1925 -1.3552,0.1925 -1.3552 0.1925c -0.7546,-0.0000 -1.5477,-0.2926 -1.5477 -0.2926c -0.7931,-0.2926 -1.3783,-0.7700 -1.3783 -0.7700ZM 489.6458,14.1016 ZM 490.3850,16.2731 c 0.8624,-1.5092 1.2474,-3.1571 1.2474 -3.1571c 0.3850,-1.6478 0.3850,-3.2957 0.3850 -3.2957c 0.0000,-1.6478 -0.3850,-3.2957 -0.3850 -3.2957c -0.3850,-1.6478 -1.2474,-3.1571 -1.2474 -3.1571l 1.4168,-0.5852 c 0.9702,1.5862 1.5015,3.2957 1.5015 3.2957c 0.5313,1.7094 0.5313,3.7423 0.5313 3.7423c 0.0000,2.0329 -0.5313,3.7423 -0.5313 3.7423c -0.5313,1.7094 -1.5015,3.2957 -1.5015 3.2957l -1.4168,-0.5852 h 0.0000 Z"/></g><g stroke-linejoin="miter" stroke-opacity="1.0" fill-opacity="0.0" stroke="rgb(211,211,211)" stroke-width="0.9999999999999997" fill="rgb(0,0,0)" stroke-dashoffset="0.0" stroke-linecap="butt" stroke-miterlimit="10.0" stroke-dasharray="4.999999999999998,4.999999999999998"><path d="M 37.3109,35.0000 v 535.0000 "/></g><g stroke-linejoin="miter" stroke-opacity="1.0" fill-opacity="0.0" stroke="rgb(211,211,211)" stroke-width="0.9999999999999997" fill="rgb(0,0,0)" stroke-dashoffset="0.0" stroke-linecap="butt" stroke-miterlimit="10.0" stroke-dasharray="4.999999999999998,4.999999999999998"><path d="M 186.8750,35.0000 v 535.0000 "/></g><g stroke-linejoin="miter" stroke-opacity="1.0" fill-opacity="0.0" stroke="rgb(211,211,211)" stroke-width="0.9999999999999997" fill="rgb(0,0,0)" stroke-dashoffset="0.0" stroke-linecap="butt" stroke-miterlimit="10.0" stroke-dasharray="4.999999999999998,4.999999999999998"><path d="M 336.4391,35.0000 v 535.0000 "/></g><g stroke-linejoin="miter" stroke-opacity="1.0" fill-opacity="0.0" stroke="rgb(211,211,211)" stroke-width="0.9999999999999997" fill="rgb(0,0,0)" stroke-dashoffset="0.0" stroke-linecap="butt" stroke-miterlimit="10.0" stroke-dasharray="4.999999999999998,4.999999999999998"><path d="M 486.0032,35.0000 v 535.0000 "/></g><g stroke-linejoin="miter" stroke-opacity="1.0" fill-opacity="0.0" stroke="rgb(211,211,211)" stroke-width="0.9999999999999997" fill="rgb(0,0,0)" stroke-dashoffset="0.0" stroke-linecap="butt" stroke-miterlimit="10.0" stroke-dasharray="4.999999999999998,4.999999999999998"><path d="M 635.5672,35.0000 v 535.0000 "/></g><g stroke-linejoin="miter" stroke-opacity="1.0" fill-opacity="0.0" stroke="rgb(211,211,211)" stroke-width="0.9999999999999997" fill="rgb(0,0,0)" stroke-dashoffset="0.0" stroke-linecap="butt" stroke-miterlimit="10.0" stroke-dasharray="4.999999999999998,4.999999999999998"><path d="M 785.1313,35.0000 v 535.0000 "/></g><g stroke-linejoin="miter" stroke-opacity="1.0" fill-opacity="0.0" stroke="rgb(211,211,211)" stroke-width="0.9999999999999997" fill="rgb(0,0,0)" stroke-dashoffset="0.0" stroke-linecap="butt" stroke-miterlimit="10.0" stroke-dasharray="4.999999999999998,4.999999999999998"><path d="M 37.3109,570.0000 h 747.8204 "/></g><g stroke-linejoin="miter" stroke-opacity="1.0" fill-opacity="0.0" stroke="rgb(211,211,211)" stroke-width="0.9999999999999997" fill="rgb(0,0,0)" stroke-dashoffset="0.0" stroke-linecap="butt" stroke-miterlimit="10.0" stroke-dasharray="4.999999999999998,4.999999999999998"><path d="M 37.3109,493.5714 h 747.8204 "/></g><g stroke-linejoin="miter" stroke-opacity="1.0" fill-opacity="0.0" stroke="rgb(211,211,211)" stroke-width="0.9999999999999997" fill="rgb(0,0,0)" stroke-dashoffset="0.0" stroke-linecap="butt" stroke-miterlimit="10.0" stroke-dasharray="4.999999999999998,4.999999999999998"><path d="M 37.3109,417.1429 h 747.8204 "/></g><g stroke-linejoin="miter" stroke-opacity="1.0" fill-opacity="0.0" stroke="rgb(211,211,211)" stroke-width="0.9999999999999997" fill="rgb(0,0,0)" stroke-dashoffset="0.0" stroke-linecap="butt" stroke-miterlimit="10.0" stroke-dasharray="4.999999999999998,4.999999999999998"><path d="M 37.3109,340.7143 h 747.8204 "/></g><g stroke-linejoin="miter" stroke-opacity="1.0" fill-opacity="0.0" stroke="rgb(211,211,211)" stroke-width="0.9999999999999997" fill="rgb(0,0,0)" stroke-dashoffset="0.0" stroke-linecap="butt" stroke-miterlimit="10.0" stroke-dasharray="4.999999999999998,4.999999999999998"><path d="M 37.3109,264.2857 h 747.8204 "/></g><g stroke-linejoin="miter" stroke-opacity="1.0" fill-opacity="0.0" stroke="rgb(211,211,211)" stroke-width="0.9999999999999997" fill="rgb(0,0,0)" stroke-dashoffset="0.0" stroke-linecap="butt" stroke-miterlimit="10.0" stroke-dasharray="4.999999999999998,4.999999999999998"><path d="M 37.3109,187.8571 h 747.8204 "/></g><g stroke-linejoin="miter" stroke-opacity="1.0" fill-opacity="0.0" stroke="rgb(211,211,211)" stroke-width="0.9999999999999997" fill="rgb(0,0,0)" stroke-dashoffset="0.0" stroke-linecap="butt" stroke-miterlimit="10.0" stroke-dasharray="4.999999999999998,4.999999999999998"><path d="M 37.3109,111.4286 h 747.8204 "/></g><g stroke-linejoin="miter" stroke-opacity="1.0" fill-opacity="0.0" stroke="rgb(211,211,211)" stroke-width="0.9999999999999997" fill="rgb(0,0,0)" stroke-dashoffset="0.0" stroke-linecap="butt" stroke-miterlimit="10.0" stroke-dasharray="4.999999999999998,4.999999999999998"><path d="M 37.3109,35.0000 h 747.8204 "/></g><g stroke-linejoin="round" stroke-opacity="1.0" fill-opacity="0.0" stroke="rgb(0,0,255)" stroke-width="0.9999999999999997" fill="rgb(0,0,0)" stroke-linecap="round" stroke-miterlimit="10.0"><defs><clipPath id="myClip1"><path d="M 37.3109,35.0000 v 535.0000 h 747.8204 v -535.0000 Z"/></clipPath></defs><g clip-path="url(#myClip1)"><path d="M 82.4090,498.1599 l 1.3028,-0.2596 l 1.3028,-0.5187 l 1.3028,-0.7770 l 1.3028,-1.0341 l 1.3028,-1.2895 l 1.3028,-1.5429 l 1.3028,-1.7937 l 1.3028,-2.0417 l 1.3028,-2.2864 l 1.3028,-2.5274 l 1.3028,-2.7643 l 1.3028,-2.9968 l 1.3028,-3.2244 l 1.3028,-3.4468 l 1.3028,-3.6636 l 1.3028,-3.8745 l 1.3028,-4.0791 l 1.3028,-4.2771 l 1.3028,-4.4681 l 1.3028,-4.6520 l 1.3028,-4.8283 l 1.3028,-4.9968 l 1.3028,-5.1572 l 1.3028,-5.3094 l 1.3028,-5.4530 l 1.3028,-5.5879 l 1.3028,-5.7140 l 1.3028,-5.8310 l 1.3028,-5.9388 l 1.3028,-6.0373 l 1.3028,-6.1264 l 1.3028,-6.2060 l 1.3028,-6.2762 l 1.3028,-6.3368 l 1.3028,-6.3880 l 1.3028,-6.4297 l 1.3028,-6.4619 l 1.3028,-6.4849 l 1.3028,-6.4986 l 1.3028,-6.5031 l 1.3028,-6.4988 l 1.3028,-6.4856 l 1.3028,-6.4638 l 1.3028,-6.4336 l 1.3028,-6.3953 l 1.3028,-6.3491 l 1.3028,-6.2952 l 1.3028,-6.2339 l 1.3028,-6.1656 l 1.3028,-6.0905 l 1.3028,-6.0090 l 1.3028,-5.9214 l 1.3028,-5.8280 l 1.3028,-5.7292 l 1.3028,-5.6254 l 1.3028,-5.5169 l 1.3028,-5.4042 l 1.3028,-5.2875 l 1.3028,-5.1673 l 1.3028,-5.0440 l 1.3028,-4.9179 l 1.3028,-4.7894 l 1.3028,-4.6589 l 1.3028,-4.5267 l 1.3028,-4.3933 l 1.3028,-4.2590 l 1.3028,-4.1241 l 1.3028,-3.9889 l 1.3028,-3.8539 l 1.3028,-3.7192 l 1.3028,-3.5852 l 1.3028,-3.4522 l 1.3028,-3.3204 l 1.3028,-3.1900 l 1.3028,-3.0612 l 1.3028,-2.9343 l 1.3028,-2.8094 l 1.3028,-2.6867 l 1.3028,-2.5662 l 1.3028,-2.4481 l 1.3028,-2.3324 l 1.3028,-2.2192 l 1.3028,-2.1085 l 1.3028,-2.0002 l 1.3028,-1.8944 l 1.3028,-1.7910 l 1.3028,-1.6899 l 1.3028,-1.5910 l 1.3028,-1.4943 l 1.3028,-1.3995 l 1.3028,-1.3065 l 1.3028,-1.2153 l 1.3028,-1.1255 l 1.3028,-1.0371 l 1.3028,-0.9498 l 1.3028,-0.8635 l 1.3028,-0.7779 l 1.3028,-0.6930 l 1.3028,-0.6085 l 1.3028,-0.5243 l 1.3028,-0.4402 l 1.3028,-0.3561 l 1.3028,-0.2718 l 1.3028,-0.1873 l 1.3028,-0.1025 l 1.3028,-0.0173 l 1.3028,0.0684 l 1.3028,0.1545 l 1.3028,0.2410 l 1.3028,0.3279 l 1.3028,0.4150 l 1.3028,0.5024 l 1.3028,0.5898 l 1.3028,0.6771 l 1.3028,0.7641 l 1.3028,0.8506 l 1.3028,0.9363 l 1.3028,1.0210 l 1.3028,1.1044 l 1.3028,1.1861 l 1.3028,1.2658 l 1.3028,1.3432 l 1.3028,1.4180 l 1.3028,1.4897 l 1.3028,1.5579 l 1.3028,1.6224 l 1.3028,1.6827 l 1.3028,1.7384 l 1.3028,1.7892 l 1.3028,1.8347 l 1.3028,1.8745 l 1.3028,1.9085 l 1.3028,1.9362 l 1.3028,1.9574 l 1.3028,1.9719 l 1.3028,1.9794 l 1.3028,1.9798 l 1.3028,1.9730 l 1.3028,1.9589 l 1.3028,1.9374 l 1.3028,1.9086 l 1.3028,1.8725 l 1.3028,1.8293 l 1.3028,1.7791 l 1.3028,1.7222 l 1.3028,1.6588 l 1.3028,1.5892 l 1.3028,1.5140 l 1.3028,1.4334 l 1.3028,1.3481 l 1.3028,1.2586 l 1.3028,1.1654 l 1.3028,1.0693 l 1.3028,0.9708 l 1.3028,0.8709 l 1.3028,0.7701 l 1.3028,0.6694 l 1.3028,0.5696 l 1.3028,0.4715 l 1.3028,0.3759 l 1.3028,0.2838 l 1.3028,0.1960 l 1.3028,0.1134 l 1.3028,0.0369 l 1.3028,-0.0327 l 1.3028,-0.0945 l 1.3028,-0.1477 l 1.3028,-0.1916 l 1.3028,-0.2255 l 1.3028,-0.2486 l 1.3028,-0.2604 l 1.3028,-0.2603 l 1.3028,-0.2477 l 1.3028,-0.2223 l 1.3028,-0.1837 l 1.3028,-0.1316 l 1.3028,-0.0659 l 1.3028,0.0136 l 1.3028,0.1068 l 1.3028,0.2138 l 1.3028,0.3343 l 1.3028,0.4681 l 1.3028,0.6149 l 1.3028,0.7742 l 1.3028,0.9456 l 1.3028,1.1283 l 1.3028,1.3218 l 1.3028,1.5253 l 1.3028,1.7379 l 1.3028,1.9589 l 1.3028,2.1871 l 1.3028,2.4217 l 1.3028,2.6615 l 1.3028,2.9056 l 1.3028,3.1527 l 1.3028,3.4017 l 1.3028,3.6515 l 1.3028,3.9008 l 1.3028,4.1486 l 1.3028,4.3936 l 1.3028,4.6348 l 1.3028,4.8709 l 1.3028,5.1009 l 1.3028,5.3237 l 1.3028,5.5384 l 1.3028,5.7439 l 1.3028,5.9394 l 1.3028,6.1240 l 1.3028,6.2969 l 1.3028,6.4575 l 1.3028,6.6050 l 1.3028,6.7391 l 1.3028,6.8590 l 1.3028,6.9646 l 1.3028,7.0554 l 1.3028,7.1313 l 1.3028,7.1921 l 1.3028,7.2377 l 1.3028,7.2681 l 1.3028,7.2834 l 1.3028,7.2839 l 1.3028,7.2696 l 1.3028,7.2410 l 1.3028,7.1984 l 1.3028,7.1422 l 1.3028,7.0729 l 1.3028,6.9910 l 1.3028,6.8971 l 1.3028,6.7918 l 1.3028,6.6758 l 1.3028,6.5497 l 1.3028,6.4143 l 1.3028,6.2703 l 1.3028,6.1184 l 1.3028,5.9593 l 1.3028,5.7939 l 1.3028,5.6229 l 1.3028,5.4469 l 1.3028,5.2668 l 1.3028,5.0833 l 1.3028,4.8972 l 1.3028,4.7090 l 1.3028,4.5195 l 1.3028,4.3293 l 1.3028,4.1391 l 1.3028,3.9494 l 1.3028,3.7609 l 1.3028,3.5740 l 1.3028,3.3893 l 1.3028,3.2072 l 1.3028,3.0282 l 1.3028,2.8527 l 1.3028,2.6811 l 1.3028,2.5137 l 1.3028,2.3508 l 1.3028,2.1927 l 1.3028,2.0397 l 1.3028,1.8919 l 1.3028,1.7496 l 1.3028,1.6129 l 1.3028,1.4820 l 1.3028,1.3569 l 1.3028,1.2378 l 1.3028,1.1246 l 1.3028,1.0175 l 1.3028,0.9164 l 1.3028,0.8213 l 1.3028,0.7323 l 1.3028,0.6491 l 1.3028,0.5719 l 1.3028,0.5005 l 1.3028,0.4347 l 1.3028,0.3746 l 1.3028,0.3199 l 1.3028,0.2706 l 1.3028,0.2264 l 1.3028,0.1873 l 1.3028,0.1529 l 1.3028,0.1233 l 1.3028,0.0981 l 1.3028,0.0772 l 1.3028,0.0604 l 1.3028,0.0475 l 1.3028,0.0382 l 1.3028,0.0324 l 1.3028,0.0297 l 1.3028,0.0301 l 1.3028,0.0332 l 1.3028,0.0389 l 1.3028,0.0468 l 1.3028,0.0569 l 1.3028,0.0688 l 1.3028,0.0824 l 1.3028,0.0973 l 1.3028,0.1135 l 1.3028,0.1307 l 1.3028,0.1487 l 1.3028,0.1672 l 1.3028,0.1862 l 1.3028,0.2053 l 1.3028,0.2245 l 1.3028,0.2436 l 1.3028,0.2624 l 1.3028,0.2808 l 1.3028,0.2986 l 1.3028,0.3157 l 1.3028,0.3321 l 1.3028,0.3475 l 1.3028,0.3619 l 1.3028,0.3752 l 1.3028,0.3874 l 1.3028,0.3984 l 1.3028,0.4082 l 1.3028,0.4166 l 1.3028,0.4238 l 1.3028,0.4296 l 1.3028,0.4340 l 1.3028,0.4372 l 1.3028,0.4390 l 1.3028,0.4395 l 1.3028,0.4388 l 1.3028,0.4368 l 1.3028,0.4337 l 1.3028,0.4293 l 1.3028,0.4239 l 1.3028,0.4174 l 1.3028,0.4100 l 1.3028,0.4016 l 1.3028,0.3923 l 1.3028,0.3822 l 1.3028,0.3714 l 1.3028,0.3599 l 1.3028,0.3478 l 1.3028,0.3351 l 1.3028,0.3219 l 1.3028,0.3082 l 1.3028,0.2942 l 1.3028,0.2798 l 1.3028,0.2652 l 1.3028,0.2502 l 1.3028,0.2351 l 1.3028,0.2198 l 1.3028,0.2044 l 1.3028,0.1888 l 1.3028,0.1732 l 1.3028,0.1574 l 1.3028,0.1417 l 1.3028,0.1259 l 1.3028,0.1101 l 1.3028,0.0942 l 1.3028,0.0784 l 1.3028,0.0625 l 1.3028,0.0467 l 1.3028,0.0308 l 1.3028,0.0149 l 1.3028,-0.0010 l 1.3028,-0.0169 l 1.3028,-0.0329 l 1.3028,-0.0489 l 1.3028,-0.0649 l 1.3028,-0.0810 l 1.3028,-0.0971 l 1.3028,-0.1133 l 1.3028,-0.1295 l 1.3028,-0.1458 l 1.3028,-0.1621 l 1.3028,-0.1785 l 1.3028,-0.1949 l 1.3028,-0.2113 l 1.3028,-0.2277 l 1.3028,-0.2441 l 1.3028,-0.2604 l 1.3028,-0.2768 l 1.3028,-0.2930 l 1.3028,-0.3092 l 1.3028,-0.3252 l 1.3028,-0.3411 l 1.3028,-0.3568 l 1.3028,-0.3723 l 1.3028,-0.3875 l 1.3028,-0.4025 l 1.3028,-0.4171 l 1.3028,-0.4314 l 1.3028,-0.4454 l 1.3028,-0.4589 l 1.3028,-0.4720 l 1.3028,-0.4847 l 1.3028,-0.4970 l 1.3028,-0.5088 l 1.3028,-0.5201 l 1.3028,-0.5309 l 1.3028,-0.5413 l 1.3028,-0.5512 l 1.3028,-0.5607 l 1.3028,-0.5698 l 1.3028,-0.5785 l 1.3028,-0.5868 l 1.3028,-0.5948 l 1.3028,-0.6026 l 1.3028,-0.6102 l 1.3028,-0.6177 l 1.3028,-0.6252 l 1.3028,-0.6326 l 1.3028,-0.6402 l 1.3028,-0.6479 l 1.3028,-0.6559 l 1.3028,-0.6643 l 1.3028,-0.6732 l 1.3028,-0.6826 l 1.3028,-0.6926 l 1.3028,-0.7034 l 1.3028,-0.7149 l 1.3028,-0.7274 l 1.3028,-0.7407 l 1.3028,-0.7551 l 1.3028,-0.7705 l 1.3028,-0.7870 l 1.3028,-0.8046 l 1.3028,-0.8233 l 1.3028,-0.8431 l 1.3028,-0.8639 l 1.3028,-0.8859 l 1.3028,-0.9087 l 1.3028,-0.9325 l 1.3028,-0.9571 l 1.3028,-0.9823 l 1.3028,-1.0081 l 1.3028,-1.0342 l 1.3028,-1.0606 l 1.3028,-1.0869 l 1.3028,-1.1130 l 1.3028,-1.1387 l 1.3028,-1.1637 l 1.3028,-1.1877 l 1.3028,-1.2106 l 1.3028,-1.2319 l 1.3028,-1.2515 l 1.3028,-1.2690 l 1.3028,-1.2842 l 1.3028,-1.2967 l 1.3028,-1.3063 l 1.3028,-1.3127 l 1.3028,-1.3157 l 1.3028,-1.3149 l 1.3028,-1.3102 l 1.3028,-1.3014 l 1.3028,-1.2881 l 1.3028,-1.2704 l 1.3028,-1.2480 l 1.3028,-1.2207 l 1.3028,-1.1887 l 1.3028,-1.1517 l 1.3028,-1.1097 l 1.3028,-1.0629 l 1.3028,-1.0112 l 1.3028,-0.9547 l 1.3028,-0.8936 l 1.3028,-0.8280 l 1.3028,-0.7582 l 1.3028,-0.6844 l 1.3028,-0.6069 l 1.3028,-0.5259 l 1.3028,-0.4419 l 1.3028,-0.3551 l 1.3028,-0.2661 l 1.3028,-0.1752 l 1.3028,-0.0828 l 1.3028,0.0105 l 1.3028,0.1043 l 1.3028,0.1981 l 1.3028,0.2914 l 1.3028,0.3836 l 1.3028,0.4744 l 1.3028,0.5632 l 1.3028,0.6495 l 1.3028,0.7328 l 1.3028,0.8127 l 1.3028,0.8886 l 1.3028,0.9603 l 1.3028,1.0272 l 1.3028,1.0890 l 1.3028,1.1453 l 1.3028,1.1959 l 1.3028,1.2404 l 1.3028,1.2785 l 1.3028,1.3101 l 1.3028,1.3350 l 1.3028,1.3531 l 1.3028,1.3641 l 1.3028,1.3682 l 1.3028,1.3652 l 1.3028,1.3551 l 1.3028,1.3381 l 1.3028,1.3142 l 1.3028,1.2835 l 1.3028,1.2462 l 1.3028,1.2025 l 1.3028,1.1527 l 1.3028,1.0969 l 1.3028,1.0355 l 1.3028,0.9689 l 1.3028,0.8972 l 1.3028,0.8211 l 1.3028,0.7407 l 1.3028,0.6565 l 1.3028,0.5691 l 1.3028,0.4787 l 1.3028,0.3859 l 1.3028,0.2911 l 1.3028,0.1949 l 1.3028,0.0977 "/></g></g><g stroke-linejoin="miter" stroke-opacity="1.0" fill-opacity="0.0" stroke="rgb(0,0,0)" stroke-width="0.9999999999999997" fill="rgb(0,0,0)" stroke-linecap="square" stroke-miterlimit="10.0"><path d="M 37.3109,570.0000 v -535.0000 "/></g><g stroke-linejoin="miter" stroke-opacity="1.0" fill-opacity="0.0" stroke="rgb(0,0,0)" stroke-width="0.9999999999999997" fill="rgb(0,0,0)" stroke-linecap="butt" stroke-miterlimit="10.0"><path d="M 37.3109,570.0000 h 2.0000 "/></g><g stroke-linejoin="miter" stroke-opacity="1.0" fill-opacity="0.0" stroke="rgb(0,0,0)" stroke-width="0.9999999999999997" fill="rgb(0,0,0)" stroke-linecap="butt" stroke-miterlimit="10.0"><path d="M 37.3109,554.7143 h 2.0000 "/></g><g stroke-linejoin="miter" stroke-opacity="1.0" fill-opacity="0.0" stroke="rgb(0,0,0)" stroke-width="0.9999999999999997" fill="rgb(0,0,0)" stroke-linecap="butt" stroke-miterlimit="10.0"><path d="M 37.3109,539.4286 h 2.0000 "/></g><g stroke-linejoin="miter" stroke-opacity="1.0" fill-opacity="0.0" stroke="rgb(0,0,0)" stroke-width="0.9999999999999997" fill="rgb(0,0,0)" stroke-linecap="butt" stroke-miterlimit="10.0"><path d="M 37.3109,524.1429 h 2.0000 "/></g><g stroke-linejoin="miter" stroke-opacity="1.0" fill-opacity="0.0" stroke="rgb(0,0,0)" stroke-width="0.9999999999999997" fill="rgb(0,0,0)" stroke-linecap="butt" stroke-miterlimit="10.0"><path d="M 37.3109,508.8571 h 2.0000 "/></g><g stroke-linejoin="miter" stroke-opacity="1.0" fill-opacity="0.0" stroke="rgb(0,0,0)" stroke-width="0.9999999999999997" fill="rgb(0,0,0)" stroke-linecap="butt" stroke-miterlimit="10.0"><path d="M 37.3109,493.5714 h 2.0000 "/></g><g stroke-linejoin="miter" stroke-opacity="1.0" fill-opacity="0.0" stroke="rgb(0,0,0)" stroke-width="0.9999999999999997" fill="rgb(0,0,0)" stroke-linecap="butt" stroke-miterlimit="10.0"><path d="M 37.3109,478.2857 h 2.0000 "/></g><g stroke-linejoin="miter" stroke-opacity="1.0" fill-opacity="0.0" stroke="rgb(0,0,0)" stroke-width="0.9999999999999997" fill="rgb(0,0,0)" stroke-linecap="butt" stroke-miterlimit="10.0"><path d="M 37.3109,463.0000 h 2.0000 "/></g><g stroke-linejoin="miter" stroke-opacity="1.0" fill-opacity="0.0" stroke="rgb(0,0,0)" stroke-width="0.9999999999999997" fill="rgb(0,0,0)" stroke-linecap="butt" stroke-miterlimit="10.0"><path d="M 37.3109,447.7143 h 2.0000 "/></g><g stroke-linejoin="miter" stroke-opacity="1.0" fill-opacity="0.0" stroke="rgb(0,0,0)" stroke-width="0.9999999999999997" fill="rgb(0,0,0)" stroke-linecap="butt" stroke-miterlimit="10.0"><path d="M 37.3109,432.4286 h 2.0000 "/></g><g stroke-linejoin="miter" stroke-opacity="1.0" fill-opacity="0.0" stroke="rgb(0,0,0)" stroke-width="0.9999999999999997" fill="rgb(0,0,0)" stroke-linecap="butt" stroke-miterlimit="10.0"><path d="M 37.3109,417.1429 h 2.0000 "/></g><g stroke-linejoin="miter" stroke-opacity="1.0" fill-opacity="0.0" stroke="rgb(0,0,0)" stroke-width="0.9999999999999997" fill="rgb(0,0,0)" stroke-linecap="butt" stroke-miterlimit="10.0"><path d="M 37.3109,401.8571 h 2.0000 "/></g><g stroke-linejoin="miter" stroke-opacity="1.0" fill-opacity="0.0" stroke="rgb(0,0,0)" stroke-width="0.9999999999999997" fill="rgb(0,0,0)" stroke-linecap="butt" stroke-miterlimit="10.0"><path d="M 37.3109,386.5714 h 2.0000 "/></g><g stroke-linejoin="miter" stroke-opacity="1.0" fill-opacity="0.0" stroke="rgb(0,0,0)" stroke-width="0.9999999999999997" fill="rgb(0,0,0)" stroke-linecap="butt" stroke-miterlimit="10.0"><path d="M 37.3109,371.2857 h 2.0000 "/></g><g stroke-linejoin="miter" stroke-opacity="1.0" fill-opacity="0.0" stroke="rgb(0,0,0)" stroke-width="0.9999999999999997" fill="rgb(0,0,0)" stroke-linecap="butt" stroke-miterlimit="10.0"><path d="M 37.3109,356.0000 h 2.0000 "/></g><g stroke-linejoin="miter" stroke-opacity="1.0" fill-opacity="0.0" stroke="rgb(0,0,0)" stroke-width="0.9999999999999997" fill="rgb(0,0,0)" stroke-linecap="butt" stroke-miterlimit="10.0"><path d="M 37.3109,340.7143 h 2.0000 "/></g><g stroke-linejoin="miter" stroke-opacity="1.0" fill-opacity="0.0" stroke="rgb(0,0,0)" stroke-width="0.9999999999999997" fill="rgb(0,0,0)" stroke-linecap="butt" stroke-miterlimit="10.0"><path d="M 37.3109,325.4286 h 2.0000 "/></g><g stroke-linejoin="miter" stroke-opacity="1.0" fill-opacity="0.0" stroke="rgb(0,0,0)" stroke-width="0.9999999999999997" fill="rgb(0,0,0)" stroke-linecap="butt" stroke-miterlimit="10.0"><path d="M 37.3109,310.1429 h 2.0000 "/></g><g stroke-linejoin="miter" stroke-opacity="1.0" fill-opacity="0.0" stroke="rgb(0,0,0)" stroke-width="0.9999999999999997" fill="rgb(0,0,0)" stroke-linecap="butt" stroke-miterlimit="10.0"><path d="M 37.3109,294.8571 h 2.0000 "/></g><g stroke-linejoin="miter" stroke-opacity="1.0" fill-opacity="0.0" stroke="rgb(0,0,0)" stroke-width="0.9999999999999997" fill="rgb(0,0,0)" stroke-linecap="butt" stroke-miterlimit="10.0"><path d="M 37.3109,279.5714 h 2.0000 "/></g><g stroke-linejoin="miter" stroke-opacity="1.0" fill-opacity="0.0" stroke="rgb(0,0,0)" stroke-width="0.9999999999999997" fill="rgb(0,0,0)" stroke-linecap="butt" stroke-miterlimit="10.0"><path d="M 37.3109,264.2857 h 2.0000 "/></g><g stroke-linejoin="miter" stroke-opacity="1.0" fill-opacity="0.0" stroke="rgb(0,0,0)" stroke-width="0.9999999999999997" fill="rgb(0,0,0)" stroke-linecap="butt" stroke-miterlimit="10.0"><path d="M 37.3109,249.0000 h 2.0000 "/></g><g stroke-linejoin="miter" stroke-opacity="1.0" fill-opacity="0.0" stroke="rgb(0,0,0)" stroke-width="0.9999999999999997" fill="rgb(0,0,0)" stroke-linecap="butt" stroke-miterlimit="10.0"><path d="M 37.3109,233.7143 h 2.0000 "/></g><g stroke-linejoin="miter" stroke-opacity="1.0" fill-opacity="0.0" stroke="rgb(0,0,0)" stroke-width="0.9999999999999997" fill="rgb(0,0,0)" stroke-linecap="butt" stroke-miterlimit="10.0"><path d="M 37.3109,218.4286 h 2.0000 "/></g><g stroke-linejoin="miter" stroke-opacity="1.0" fill-opacity="0.0" stroke="rgb(0,0,0)" stroke-width="0.9999999999999997" fill="rgb(0,0,0)" stroke-linecap="butt" stroke-miterlimit="10.0"><path d="M 37.3109,203.1429 h 2.0000 "/></g><g stroke-linejoin="miter" stroke-opacity="1.0" fill-opacity="0.0" stroke="rgb(0,0,0)" stroke-width="0.9999999999999997" fill="rgb(0,0,0)" stroke-linecap="butt" stroke-miterlimit="10.0"><path d="M 37.3109,187.8571 h 2.0000 "/></g><g stroke-linejoin="miter" stroke-opacity="1.0" fill-opacity="0.0" stroke="rgb(0,0,0)" stroke-width="0.9999999999999997" fill="rgb(0,0,0)" stroke-linecap="butt" stroke-miterlimit="10.0"><path d="M 37.3109,172.5714 h 2.0000 "/></g><g stroke-linejoin="miter" stroke-opacity="1.0" fill-opacity="0.0" stroke="rgb(0,0,0)" stroke-width="0.9999999999999997" fill="rgb(0,0,0)" stroke-linecap="butt" stroke-miterlimit="10.0"><path d="M 37.3109,157.2857 h 2.0000 "/></g><g stroke-linejoin="miter" stroke-opacity="1.0" fill-opacity="0.0" stroke="rgb(0,0,0)" stroke-width="0.9999999999999997" fill="rgb(0,0,0)" stroke-linecap="butt" stroke-miterlimit="10.0"><path d="M 37.3109,142.0000 h 2.0000 "/></g><g stroke-linejoin="miter" stroke-opacity="1.0" fill-opacity="0.0" stroke="rgb(0,0,0)" stroke-width="0.9999999999999997" fill="rgb(0,0,0)" stroke-linecap="butt" stroke-miterlimit="10.0"><path d="M 37.3109,126.7143 h 2.0000 "/></g><g stroke-linejoin="miter" stroke-opacity="1.0" fill-opacity="0.0" stroke="rgb(0,0,0)" stroke-width="0.9999999999999997" fill="rgb(0,0,0)" stroke-linecap="butt" stroke-miterlimit="10.0"><path d="M 37.3109,111.4286 h 2.0000 "/></g><g stroke-linejoin="miter" stroke-opacity="1.0" fill-opacity="0.0" stroke="rgb(0,0,0)" stroke-width="0.9999999999999997" fill="rgb(0,0,0)" stroke-linecap="butt" stroke-miterlimit="10.0"><path d="M 37.3109,96.1429 h 2.0000 "/></g><g stroke-linejoin="miter" stroke-opacity="1.0" fill-opacity="0.0" stroke="rgb(0,0,0)" stroke-width="0.9999999999999997" fill="rgb(0,0,0)" stroke-linecap="butt" stroke-miterlimit="10.0"><path d="M 37.3109,80.8571 h 2.0000 "/></g><g stroke-linejoin="miter" stroke-opacity="1.0" fill-opacity="0.0" stroke="rgb(0,0,0)" stroke-width="0.9999999999999997" fill="rgb(0,0,0)" stroke-linecap="butt" stroke-miterlimit="10.0"><path d="M 37.3109,65.5714 h 2.0000 "/></g><g stroke-linejoin="miter" stroke-opacity="1.0" fill-opacity="0.0" stroke="rgb(0,0,0)" stroke-width="0.9999999999999997" fill="rgb(0,0,0)" stroke-linecap="butt" stroke-miterlimit="10.0"><path d="M 37.3109,50.2857 h 2.0000 "/></g><g stroke-linejoin="miter" stroke-opacity="1.0" fill-opacity="0.0" stroke="rgb(0,0,0)" stroke-width="0.9999999999999997" fill="rgb(0,0,0)" stroke-linecap="butt" stroke-miterlimit="10.0"><path d="M 37.3109,35.0000 h 2.0000 "/></g><g stroke-linejoin="miter" stroke-opacity="1.0" fill-opacity="0.0" stroke="rgb(0,0,0)" stroke-width="0.9999999999999997" fill="rgb(0,0,0)" stroke-linecap="butt" stroke-miterlimit="10.0"><path d="M 37.3109,570.0000 h 5.0000 "/></g><g stroke-linejoin="miter" stroke-opacity="1.0" fill-opacity="0.0" stroke="rgb(0,0,0)" stroke-width="0.9999999999999997" fill="rgb(0,0,0)" stroke-linecap="butt" stroke-miterlimit="10.0"><path d="M 37.3109,493.5714 h 5.0000 "/></g><g stroke-linejoin="miter" stroke-opacity="1.0" fill-opacity="0.0" stroke="rgb(0,0,0)" stroke-width="0.9999999999999997" fill="rgb(0,0,0)" stroke-linecap="butt" stroke-miterlimit="10.0"><path d="M 37.3109,417.1429 h 5.0000 "/></g><g stroke-linejoin="miter" stroke-opacity="1.0" fill-opacity="0.0" stroke="rgb(0,0,0)" stroke-width="0.9999999999999997" fill="rgb(0,0,0)" stroke-linecap="butt" stroke-miterlimit="10.0"><path d="M 37.3109,340.7143 h 5.0000 "/></g><g stroke-linejoin="miter" stroke-opacity="1.0" fill-opacity="0.0" stroke="rgb(0,0,0)" stroke-width="0.9999999999999997" fill="rgb(0,0,0)" stroke-linecap="butt" stroke-miterlimit="10.0"><path d="M 37.3109,264.2857 h 5.0000 "/></g><g stroke-linejoin="miter" stroke-opacity="1.0" fill-opacity="0.0" stroke="rgb(0,0,0)" stroke-width="0.9999999999999997" fill="rgb(0,0,0)" stroke-linecap="butt" stroke-miterlimit="10.0"><path d="M 37.3109,187.8571 h 5.0000 "/></g><g stroke-linejoin="miter" stroke-opacity="1.0" fill-opacity="0.0" stroke="rgb(0,0,0)" stroke-width="0.9999999999999997" fill="rgb(0,0,0)" stroke-linecap="butt" stroke-miterlimit="10.0"><path d="M 37.3109,111.4286 h 5.0000 "/></g><g stroke-linejoin="miter" stroke-opacity="1.0" fill-opacity="0.0" stroke="rgb(0,0,0)" stroke-width="0.9999999999999997" fill="rgb(0,0,0)" stroke-linecap="butt" stroke-miterlimit="10.0"><path d="M 37.3109,35.0000 h 5.0000 "/></g><g stroke-linejoin="bevel" stroke-opacity="0.0" fill-opacity="1.0" stroke="rgb(0,0,0)" stroke-width="0.0" fill="rgb(0,0,0)" stroke-linecap="butt" stroke-miterlimit="10.0"><path d="M 23.0147,573.4454 ZM 25.6303,573.5714 c -1.0189,-0.0000 -1.5861,-0.9034 -1.5861 -0.9034c -0.5672,-0.9034 -0.5672,-2.5945 -0.5672 -2.5945c 0.0000,-1.6912 0.5672,-2.5735 0.5672 -2.5735c 0.5672,-0.8824 1.5861,-0.8824 1.5861 -0.8824c 1.0084,0.0000 1.5756,0.8824 1.5756 0.8824c 0.5672,0.8824 0.5672,2.5735 0.5672 2.5735c 0.0000,1.6912 -0.5672,2.5945 -0.5672 2.5945c -0.5672,0.9034 -1.5756,0.9034 -1.5756 0.9034ZM 25.6303,573.5714 ZM 25.6303,572.8782 c 0.2941,0.0000 0.5305,-0.1628 0.5305 -0.1628c 0.2363,-0.1628 0.4097,-0.5042 0.4097 -0.5042c 0.1733,-0.3414 0.2679,-0.8718 0.2679 -0.8718c 0.0945,-0.5305 0.0945,-1.2658 0.0945 -1.2658c 0.0000,-0.7353 -0.0945,-1.2605 -0.0945 -1.2605c -0.0945,-0.5252 -0.2679,-0.8561 -0.2679 -0.8561c -0.1733,-0.3309 -0.4097,-0.4884 -0.4097 -0.4884c -0.2363,-0.1576 -0.5305,-0.1576 -0.5305 -0.1576c -0.2941,-0.0000 -0.5357,0.1576 -0.5357 0.1576c -0.2416,0.1576 -0.4149,0.4884 -0.4149 0.4884c -0.1733,0.3309 -0.2679,0.8561 -0.2679 0.8561c -0.0945,0.5252 -0.0945,1.2605 -0.0945 1.2605c 0.0000,1.4706 0.3624,2.1376 0.3624 2.1376c 0.3624,0.6670 0.9506,0.6670 0.9506 0.6670Z"/></g><g stroke-linejoin="bevel" stroke-opacity="0.0" fill-opacity="1.0" stroke="rgb(0,0,0)" stroke-width="0.0" fill="rgb(0,0,0)" stroke-linecap="butt" stroke-miterlimit="10.0"><path d="M 10.0000,497.0168 ZM 12.6155,497.1429 c -1.0189,-0.0000 -1.5861,-0.9034 -1.5861 -0.9034c -0.5672,-0.9034 -0.5672,-2.5945 -0.5672 -2.5945c 0.0000,-1.6912 0.5672,-2.5735 0.5672 -2.5735c 0.5672,-0.8824 1.5861,-0.8824 1.5861 -0.8824c 1.0084,0.0000 1.5756,0.8824 1.5756 0.8824c 0.5672,0.8824 0.5672,2.5735 0.5672 2.5735c 0.0000,1.6912 -0.5672,2.5945 -0.5672 2.5945c -0.5672,0.9034 -1.5756,0.9034 -1.5756 0.9034ZM 12.6155,497.1429 ZM 12.6155,496.4496 c 0.2941,0.0000 0.5305,-0.1628 0.5305 -0.1628c 0.2363,-0.1628 0.4097,-0.5042 0.4097 -0.5042c 0.1733,-0.3414 0.2679,-0.8718 0.2679 -0.8718c 0.0945,-0.5305 0.0945,-1.2658 0.0945 -1.2658c 0.0000,-0.7353 -0.0945,-1.2605 -0.0945 -1.2605c -0.0945,-0.5252 -0.2679,-0.8561 -0.2679 -0.8561c -0.1733,-0.3309 -0.4097,-0.4884 -0.4097 -0.4884c -0.2363,-0.1576 -0.5305,-0.1576 -0.5305 -0.1576c -0.2941,-0.0000 -0.5357,0.1576 -0.5357 0.1576c -0.2416,0.1576 -0.4149,0.4884 -0.4149 0.4884c -0.1733,0.3309 -0.2679,0.8561 -0.2679 0.8561c -0.0945,0.5252 -0.0945,1.2605 -0.0945 1.2605c 0.0000,1.4706 0.3624,2.1376 0.3624 2.1376c 0.3624,0.6670 0.9506,0.6670 0.9506 0.6670ZM 15.2206,497.0168 ZM 15.9034,496.4916 c 0.0000,-0.3046 0.1838,-0.4884 0.1838 -0.4884c 0.1838,-0.1838 0.4464,-0.1838 0.4464 -0.1838c 0.2521,0.0000 0.4359,0.1838 0.4359 0.1838c 0.1838,0.1838 0.1838,0.4884 0.1838 0.4884c 0.0000,0.2836 -0.1838,0.4674 -0.1838 0.4674c -0.1838,0.1838 -0.4359,0.1838 -0.4359 0.1838c -0.2626,-0.0000 -0.4464,-0.1838 -0.4464 -0.1838c -0.1838,-0.1838 -0.1838,-0.4674 -0.1838 -0.4674ZM 17.8361,497.0168 ZM 20.4517,497.1429 c -1.0189,-0.0000 -1.5861,-0.9034 -1.5861 -0.9034c -0.5672,-0.9034 -0.5672,-2.5945 -0.5672 -2.5945c 0.0000,-1.6912 0.5672,-2.5735 0.5672 -2.5735c 0.5672,-0.8824 1.5861,-0.8824 1.5861 -0.8824c 1.0084,0.0000 1.5756,0.8824 1.5756 0.8824c 0.5672,0.8824 0.5672,2.5735 0.5672 2.5735c 0.0000,1.6912 -0.5672,2.5945 -0.5672 2.5945c -0.5672,0.9034 -1.5756,0.9034 -1.5756 0.9034ZM 20.4517,497.1429 ZM 20.4517,496.4496 c 0.2941,0.0000 0.5305,-0.1628 0.5305 -0.1628c 0.2363,-0.1628 0.4097,-0.5042 0.4097 -0.5042c 0.1733,-0.3414 0.2679,-0.8718 0.2679 -0.8718c 0.0945,-0.5305 0.0945,-1.2658 0.0945 -1.2658c 0.0000,-0.7353 -0.0945,-1.2605 -0.0945 -1.2605c -0.0945,-0.5252 -0.2679,-0.8561 -0.2679 -0.8561c -0.1733,-0.3309 -0.4097,-0.4884 -0.4097 -0.4884c -0.2363,-0.1576 -0.5305,-0.1576 -0.5305 -0.1576c -0.2941,-0.0000 -0.5357,0.1576 -0.5357 0.1576c -0.2416,0.1576 -0.4149,0.4884 -0.4149 0.4884c -0.1733,0.3309 -0.2679,0.8561 -0.2679 0.8561c -0.0945,0.5252 -0.0945,1.2605 -0.0945 1.2605c 0.0000,1.4706 0.3624,2.1376 0.3624 2.1376c 0.3624,0.6670 0.9506,0.6670 0.9506 0.6670ZM 23.0567,497.0168 ZM 23.7395,495.6618 c 0.2941,0.3046 0.6985,0.5357 0.6985 0.5357c 0.4044,0.2311 0.9926,0.2311 0.9926 0.2311c 0.3046,0.0000 0.5725,-0.1103 0.5725 -0.1103c 0.2679,-0.1103 0.4674,-0.3099 0.4674 -0.3099c 0.1996,-0.1996 0.3151,-0.4832 0.3151 -0.4832c 0.1155,-0.2836 0.1155,-0.6303 0.1155 -0.6303c 0.0000,-0.6933 -0.3887,-1.0819 -0.3887 -1.0819c -0.3887,-0.3887 -1.0399,-0.3887 -1.0399 -0.3887c -0.3466,-0.0000 -0.5935,0.1050 -0.5935 0.1050c -0.2468,0.1050 -0.5515,0.3046 -0.5515 0.3046l -0.4622,-0.2941 l 0.2206,-3.2248 h 3.3508 v 0.7458 h -2.5945 l -0.1786,1.9853 c 0.2416,-0.1261 0.4832,-0.1996 0.4832 -0.1996c 0.2416,-0.0735 0.5462,-0.0735 0.5462 -0.0735c 0.4307,0.0000 0.8088,0.1261 0.8088 0.1261c 0.3782,0.1261 0.6618,0.3834 0.6618 0.3834c 0.2836,0.2574 0.4464,0.6513 0.4464 0.6513c 0.1628,0.3939 0.1628,0.9401 0.1628 0.9401c 0.0000,0.5462 -0.1891,0.9664 -0.1891 0.9664c -0.1891,0.4202 -0.5042,0.7090 -0.5042 0.7090c -0.3151,0.2889 -0.7195,0.4412 -0.7195 0.4412c -0.4044,0.1523 -0.8456,0.1523 -0.8456 0.1523c -0.3992,-0.0000 -0.7300,-0.0788 -0.7300 -0.0788c -0.3309,-0.0788 -0.5987,-0.2048 -0.5987 -0.2048c -0.2679,-0.1261 -0.4832,-0.2889 -0.4832 -0.2889c -0.2153,-0.1628 -0.3834,-0.3414 -0.3834 -0.3414Z"/></g><g stroke-linejoin="bevel" stroke-opacity="0.0" fill-opacity="1.0" stroke="rgb(0,0,0)" stroke-width="0.0" fill="rgb(0,0,0)" stroke-linecap="butt" stroke-miterlimit="10.0"><path d="M 15.3256,420.5882 ZM 17.9412,420.7143 c -1.0189,-0.0000 -1.5861,-0.9034 -1.5861 -0.9034c -0.5672,-0.9034 -0.5672,-2.5945 -0.5672 -2.5945c 0.0000,-1.6912 0.5672,-2.5735 0.5672 -2.5735c 0.5672,-0.8824 1.5861,-0.8824 1.5861 -0.8824c 1.0084,0.0000 1.5756,0.8824 1.5756 0.8824c 0.5672,0.8824 0.5672,2.5735 0.5672 2.5735c 0.0000,1.6912 -0.5672,2.5945 -0.5672 2.5945c -0.5672,0.9034 -1.5756,0.9034 -1.5756 0.9034ZM 17.9412,420.7143 ZM 17.9412,420.0210 c 0.2941,0.0000 0.5305,-0.1628 0.5305 -0.1628c 0.2363,-0.1628 0.4097,-0.5042 0.4097 -0.5042c 0.1733,-0.3414 0.2679,-0.8718 0.2679 -0.8718c 0.0945,-0.5305 0.0945,-1.2658 0.0945 -1.2658c 0.0000,-0.7353 -0.0945,-1.2605 -0.0945 -1.2605c -0.0945,-0.5252 -0.2679,-0.8561 -0.2679 -0.8561c -0.1733,-0.3309 -0.4097,-0.4884 -0.4097 -0.4884c -0.2363,-0.1576 -0.5305,-0.1576 -0.5305 -0.1576c -0.2941,-0.0000 -0.5357,0.1576 -0.5357 0.1576c -0.2416,0.1576 -0.4149,0.4884 -0.4149 0.4884c -0.1733,0.3309 -0.2679,0.8561 -0.2679 0.8561c -0.0945,0.5252 -0.0945,1.2605 -0.0945 1.2605c 0.0000,1.4706 0.3624,2.1376 0.3624 2.1376c 0.3624,0.6670 0.9506,0.6670 0.9506 0.6670ZM 20.5462,420.5882 ZM 21.2290,420.0630 c 0.0000,-0.3046 0.1838,-0.4884 0.1838 -0.4884c 0.1838,-0.1838 0.4464,-0.1838 0.4464 -0.1838c 0.2521,0.0000 0.4359,0.1838 0.4359 0.1838c 0.1838,0.1838 0.1838,0.4884 0.1838 0.4884c 0.0000,0.2836 -0.1838,0.4674 -0.1838 0.4674c -0.1838,0.1838 -0.4359,0.1838 -0.4359 0.1838c -0.2626,-0.0000 -0.4464,-0.1838 -0.4464 -0.1838c -0.1838,-0.1838 -0.1838,-0.4674 -0.1838 -0.4674ZM 23.1618,420.5882 ZM 23.9916,419.8739 h 1.5336 v -4.9370 h -1.2185 v -0.5567 c 0.4622,-0.0840 0.8036,-0.2048 0.8036 -0.2048c 0.3414,-0.1208 0.6145,-0.2889 0.6145 -0.2889h 0.6618 v 5.9874 h 1.3866 v 0.7143 h -3.7815 v -0.7143 Z"/></g><g stroke-linejoin="bevel" stroke-opacity="0.0" fill-opacity="1.0" stroke="rgb(0,0,0)" stroke-width="0.0" fill="rgb(0,0,0)" stroke-linecap="butt" stroke-miterlimit="10.0"><path d="M 10.0000,344.1597 ZM 12.6155,344.2857 c -1.0189,-0.0000 -1.5861,-0.9034 -1.5861 -0.9034c -0.5672,-0.9034 -0.5672,-2.5945 -0.5672 -2.5945c 0.0000,-1.6912 0.5672,-2.5735 0.5672 -2.5735c 0.5672,-0.8824 1.5861,-0.8824 1.5861 -0.8824c 1.0084,0.0000 1.5756,0.8824 1.5756 0.8824c 0.5672,0.8824 0.5672,2.5735 0.5672 2.5735c 0.0000,1.6912 -0.5672,2.5945 -0.5672 2.5945c -0.5672,0.9034 -1.5756,0.9034 -1.5756 0.9034ZM 12.6155,344.2857 ZM 12.6155,343.5924 c 0.2941,0.0000 0.5305,-0.1628 0.5305 -0.1628c 0.2363,-0.1628 0.4097,-0.5042 0.4097 -0.5042c 0.1733,-0.3414 0.2679,-0.8718 0.2679 -0.8718c 0.0945,-0.5305 0.0945,-1.2658 0.0945 -1.2658c 0.0000,-0.7353 -0.0945,-1.2605 -0.0945 -1.2605c -0.0945,-0.5252 -0.2679,-0.8561 -0.2679 -0.8561c -0.1733,-0.3309 -0.4097,-0.4884 -0.4097 -0.4884c -0.2363,-0.1576 -0.5305,-0.1576 -0.5305 -0.1576c -0.2941,-0.0000 -0.5357,0.1576 -0.5357 0.1576c -0.2416,0.1576 -0.4149,0.4884 -0.4149 0.4884c -0.1733,0.3309 -0.2679,0.8561 -0.2679 0.8561c -0.0945,0.5252 -0.0945,1.2605 -0.0945 1.2605c 0.0000,1.4706 0.3624,2.1376 0.3624 2.1376c 0.3624,0.6670 0.9506,0.6670 0.9506 0.6670ZM 15.2206,344.1597 ZM 15.9034,343.6345 c 0.0000,-0.3046 0.1838,-0.4884 0.1838 -0.4884c 0.1838,-0.1838 0.4464,-0.1838 0.4464 -0.1838c 0.2521,0.0000 0.4359,0.1838 0.4359 0.1838c 0.1838,0.1838 0.1838,0.4884 0.1838 0.4884c 0.0000,0.2836 -0.1838,0.4674 -0.1838 0.4674c -0.1838,0.1838 -0.4359,0.1838 -0.4359 0.1838c -0.2626,-0.0000 -0.4464,-0.1838 -0.4464 -0.1838c -0.1838,-0.1838 -0.1838,-0.4674 -0.1838 -0.4674ZM 17.8361,344.1597 ZM 18.6660,343.4454 h 1.5336 v -4.9370 h -1.2185 v -0.5567 c 0.4622,-0.0840 0.8036,-0.2048 0.8036 -0.2048c 0.3414,-0.1208 0.6145,-0.2889 0.6145 -0.2889h 0.6618 v 5.9874 h 1.3866 v 0.7143 h -3.7815 v -0.7143 ZM 23.0567,344.1597 ZM 23.7395,342.8046 c 0.2941,0.3046 0.6985,0.5357 0.6985 0.5357c 0.4044,0.2311 0.9926,0.2311 0.9926 0.2311c 0.3046,0.0000 0.5725,-0.1103 0.5725 -0.1103c 0.2679,-0.1103 0.4674,-0.3099 0.4674 -0.3099c 0.1996,-0.1996 0.3151,-0.4832 0.3151 -0.4832c 0.1155,-0.2836 0.1155,-0.6303 0.1155 -0.6303c 0.0000,-0.6933 -0.3887,-1.0819 -0.3887 -1.0819c -0.3887,-0.3887 -1.0399,-0.3887 -1.0399 -0.3887c -0.3466,-0.0000 -0.5935,0.1050 -0.5935 0.1050c -0.2468,0.1050 -0.5515,0.3046 -0.5515 0.3046l -0.4622,-0.2941 l 0.2206,-3.2248 h 3.3508 v 0.7458 h -2.5945 l -0.1786,1.9853 c 0.2416,-0.1261 0.4832,-0.1996 0.4832 -0.1996c 0.2416,-0.0735 0.5462,-0.0735 0.5462 -0.0735c 0.4307,0.0000 0.8088,0.1261 0.8088 0.1261c 0.3782,0.1261 0.6618,0.3834 0.6618 0.3834c 0.2836,0.2574 0.4464,0.6513 0.4464 0.6513c 0.1628,0.3939 0.1628,0.9401 0.1628 0.9401c 0.0000,0.5462 -0.1891,0.9664 -0.1891 0.9664c -0.1891,0.4202 -0.5042,0.7090 -0.5042 0.7090c -0.3151,0.2889 -0.7195,0.4412 -0.7195 0.4412c -0.4044,0.1523 -0.8456,0.1523 -0.8456 0.1523c -0.3992,-0.0000 -0.7300,-0.0788 -0.7300 -0.0788c -0.3309,-0.0788 -0.5987,-0.2048 -0.5987 -0.2048c -0.2679,-0.1261 -0.4832,-0.2889 -0.4832 -0.2889c -0.2153,-0.1628 -0.3834,-0.3414 -0.3834 -0.3414Z"/></g><g stroke-linejoin="bevel" stroke-opacity="0.0" fill-opacity="1.0" stroke="rgb(0,0,0)" stroke-width="0.0" fill="rgb(0,0,0)" stroke-linecap="butt" stroke-miterlimit="10.0"><path d="M 15.1891,267.7311 ZM 17.8046,267.8571 c -1.0189,-0.0000 -1.5861,-0.9034 -1.5861 -0.9034c -0.5672,-0.9034 -0.5672,-2.5945 -0.5672 -2.5945c 0.0000,-1.6912 0.5672,-2.5735 0.5672 -2.5735c 0.5672,-0.8824 1.5861,-0.8824 1.5861 -0.8824c 1.0084,0.0000 1.5756,0.8824 1.5756 0.8824c 0.5672,0.8824 0.5672,2.5735 0.5672 2.5735c 0.0000,1.6912 -0.5672,2.5945 -0.5672 2.5945c -0.5672,0.9034 -1.5756,0.9034 -1.5756 0.9034ZM 17.8046,267.8571 ZM 17.8046,267.1639 c 0.2941,0.0000 0.5305,-0.1628 0.5305 -0.1628c 0.2363,-0.1628 0.4097,-0.5042 0.4097 -0.5042c 0.1733,-0.3414 0.2679,-0.8718 0.2679 -0.8718c 0.0945,-0.5305 0.0945,-1.2658 0.0945 -1.2658c 0.0000,-0.7353 -0.0945,-1.2605 -0.0945 -1.2605c -0.0945,-0.5252 -0.2679,-0.8561 -0.2679 -0.8561c -0.1733,-0.3309 -0.4097,-0.4884 -0.4097 -0.4884c -0.2363,-0.1576 -0.5305,-0.1576 -0.5305 -0.1576c -0.2941,-0.0000 -0.5357,0.1576 -0.5357 0.1576c -0.2416,0.1576 -0.4149,0.4884 -0.4149 0.4884c -0.1733,0.3309 -0.2679,0.8561 -0.2679 0.8561c -0.0945,0.5252 -0.0945,1.2605 -0.0945 1.2605c 0.0000,1.4706 0.3624,2.1376 0.3624 2.1376c 0.3624,0.6670 0.9506,0.6670 0.9506 0.6670ZM 20.4097,267.7311 ZM 21.0924,267.2059 c 0.0000,-0.3046 0.1838,-0.4884 0.1838 -0.4884c 0.1838,-0.1838 0.4464,-0.1838 0.4464 -0.1838c 0.2521,0.0000 0.4359,0.1838 0.4359 0.1838c 0.1838,0.1838 0.1838,0.4884 0.1838 0.4884c 0.0000,0.2836 -0.1838,0.4674 -0.1838 0.4674c -0.1838,0.1838 -0.4359,0.1838 -0.4359 0.1838c -0.2626,-0.0000 -0.4464,-0.1838 -0.4464 -0.1838c -0.1838,-0.1838 -0.1838,-0.4674 -0.1838 -0.4674ZM 23.0252,267.7311 ZM 23.4454,267.2164 c 0.7563,-0.7563 1.3445,-1.3655 1.3445 -1.3655c 0.5882,-0.6092 0.9874,-1.1292 0.9874 -1.1292c 0.3992,-0.5200 0.6092,-0.9559 0.6092 -0.9559c 0.2101,-0.4359 0.2101,-0.8456 0.2101 -0.8456c 0.0000,-0.5777 -0.3151,-0.9454 -0.3151 -0.9454c -0.3151,-0.3676 -0.9559,-0.3676 -0.9559 -0.3676c -0.4202,-0.0000 -0.7773,0.2363 -0.7773 0.2363c -0.3571,0.2363 -0.6513,0.5725 -0.6513 0.5725l -0.4937,-0.4937 c 0.4202,-0.4622 0.8929,-0.7405 0.8929 -0.7405c 0.4727,-0.2784 1.1345,-0.2784 1.1345 -0.2784c 0.9349,0.0000 1.4706,0.5410 1.4706 0.5410c 0.5357,0.5410 0.5357,1.4338 0.5357 1.4338c 0.0000,0.4727 -0.2048,0.9506 -0.2048 0.9506c -0.2048,0.4779 -0.5672,0.9874 -0.5672 0.9874c -0.3624,0.5095 -0.8613,1.0609 -0.8613 1.0609c -0.4989,0.5515 -1.0977,1.1712 -1.0977 1.1712c 0.2731,-0.0210 0.5672,-0.0420 0.5672 -0.0420c 0.2941,-0.0210 0.5567,-0.0210 0.5567 -0.0210h 1.9433 v 0.7458 h -4.3277 v -0.5147 Z"/></g><g stroke-linejoin="bevel" stroke-opacity="0.0" fill-opacity="1.0" stroke="rgb(0,0,0)" stroke-width="0.0" fill="rgb(0,0,0)" stroke-linecap="butt" stroke-miterlimit="10.0"><path d="M 10.0000,191.3025 ZM 12.6155,191.4286 c -1.0189,-0.0000 -1.5861,-0.9034 -1.5861 -0.9034c -0.5672,-0.9034 -0.5672,-2.5945 -0.5672 -2.5945c 0.0000,-1.6912 0.5672,-2.5735 0.5672 -2.5735c 0.5672,-0.8824 1.5861,-0.8824 1.5861 -0.8824c 1.0084,0.0000 1.5756,0.8824 1.5756 0.8824c 0.5672,0.8824 0.5672,2.5735 0.5672 2.5735c 0.0000,1.6912 -0.5672,2.5945 -0.5672 2.5945c -0.5672,0.9034 -1.5756,0.9034 -1.5756 0.9034ZM 12.6155,191.4286 ZM 12.6155,190.7353 c 0.2941,0.0000 0.5305,-0.1628 0.5305 -0.1628c 0.2363,-0.1628 0.4097,-0.5042 0.4097 -0.5042c 0.1733,-0.3414 0.2679,-0.8718 0.2679 -0.8718c 0.0945,-0.5305 0.0945,-1.2658 0.0945 -1.2658c 0.0000,-0.7353 -0.0945,-1.2605 -0.0945 -1.2605c -0.0945,-0.5252 -0.2679,-0.8561 -0.2679 -0.8561c -0.1733,-0.3309 -0.4097,-0.4884 -0.4097 -0.4884c -0.2363,-0.1576 -0.5305,-0.1576 -0.5305 -0.1576c -0.2941,-0.0000 -0.5357,0.1576 -0.5357 0.1576c -0.2416,0.1576 -0.4149,0.4884 -0.4149 0.4884c -0.1733,0.3309 -0.2679,0.8561 -0.2679 0.8561c -0.0945,0.5252 -0.0945,1.2605 -0.0945 1.2605c 0.0000,1.4706 0.3624,2.1376 0.3624 2.1376c 0.3624,0.6670 0.9506,0.6670 0.9506 0.6670ZM 15.2206,191.3025 ZM 15.9034,190.7773 c 0.0000,-0.3046 0.1838,-0.4884 0.1838 -0.4884c 0.1838,-0.1838 0.4464,-0.1838 0.4464 -0.1838c 0.2521,0.0000 0.4359,0.1838 0.4359 0.1838c 0.1838,0.1838 0.1838,0.4884 0.1838 0.4884c 0.0000,0.2836 -0.1838,0.4674 -0.1838 0.4674c -0.1838,0.1838 -0.4359,0.1838 -0.4359 0.1838c -0.2626,-0.0000 -0.4464,-0.1838 -0.4464 -0.1838c -0.1838,-0.1838 -0.1838,-0.4674 -0.1838 -0.4674ZM 17.8361,191.3025 ZM 18.2563,190.7878 c 0.7563,-0.7563 1.3445,-1.3655 1.3445 -1.3655c 0.5882,-0.6092 0.9874,-1.1292 0.9874 -1.1292c 0.3992,-0.5200 0.6092,-0.9559 0.6092 -0.9559c 0.2101,-0.4359 0.2101,-0.8456 0.2101 -0.8456c 0.0000,-0.5777 -0.3151,-0.9454 -0.3151 -0.9454c -0.3151,-0.3676 -0.9559,-0.3676 -0.9559 -0.3676c -0.4202,-0.0000 -0.7773,0.2363 -0.7773 0.2363c -0.3571,0.2363 -0.6513,0.5725 -0.6513 0.5725l -0.4937,-0.4937 c 0.4202,-0.4622 0.8929,-0.7405 0.8929 -0.7405c 0.4727,-0.2784 1.1345,-0.2784 1.1345 -0.2784c 0.9349,0.0000 1.4706,0.5410 1.4706 0.5410c 0.5357,0.5410 0.5357,1.4338 0.5357 1.4338c 0.0000,0.4727 -0.2048,0.9506 -0.2048 0.9506c -0.2048,0.4779 -0.5672,0.9874 -0.5672 0.9874c -0.3624,0.5095 -0.8613,1.0609 -0.8613 1.0609c -0.4989,0.5515 -1.0977,1.1712 -1.0977 1.1712c 0.2731,-0.0210 0.5672,-0.0420 0.5672 -0.0420c 0.2941,-0.0210 0.5567,-0.0210 0.5567 -0.0210h 1.9433 v 0.7458 h -4.3277 v -0.5147 ZM 23.0567,191.3025 ZM 23.7395,189.9475 c 0.2941,0.3046 0.6985,0.5357 0.6985 0.5357c 0.4044,0.2311 0.9926,0.2311 0.9926 0.2311c 0.3046,0.0000 0.5725,-0.1103 0.5725 -0.1103c 0.2679,-0.1103 0.4674,-0.3099 0.4674 -0.3099c 0.1996,-0.1996 0.3151,-0.4832 0.3151 -0.4832c 0.1155,-0.2836 0.1155,-0.6303 0.1155 -0.6303c 0.0000,-0.6933 -0.3887,-1.0819 -0.3887 -1.0819c -0.3887,-0.3887 -1.0399,-0.3887 -1.0399 -0.3887c -0.3466,-0.0000 -0.5935,0.1050 -0.5935 0.1050c -0.2468,0.1050 -0.5515,0.3046 -0.5515 0.3046l -0.4622,-0.2941 l 0.2206,-3.2248 h 3.3508 v 0.7458 h -2.5945 l -0.1786,1.9853 c 0.2416,-0.1261 0.4832,-0.1996 0.4832 -0.1996c 0.2416,-0.0735 0.5462,-0.0735 0.5462 -0.0735c 0.4307,0.0000 0.8088,0.1261 0.8088 0.1261c 0.3782,0.1261 0.6618,0.3834 0.6618 0.3834c 0.2836,0.2574 0.4464,0.6513 0.4464 0.6513c 0.1628,0.3939 0.1628,0.9401 0.1628 0.9401c 0.0000,0.5462 -0.1891,0.9664 -0.1891 0.9664c -0.1891,0.4202 -0.5042,0.7090 -0.5042 0.7090c -0.3151,0.2889 -0.7195,0.4412 -0.7195 0.4412c -0.4044,0.1523 -0.8456,0.1523 -0.8456 0.1523c -0.3992,-0.0000 -0.7300,-0.0788 -0.7300 -0.0788c -0.3309,-0.0788 -0.5987,-0.2048 -0.5987 -0.2048c -0.2679,-0.1261 -0.4832,-0.2889 -0.4832 -0.2889c -0.2153,-0.1628 -0.3834,-0.3414 -0.3834 -0.3414Z"/></g><g stroke-linejoin="bevel" stroke-opacity="0.0" fill-opacity="1.0" stroke="rgb(0,0,0)" stroke-width="0.0" fill="rgb(0,0,0)" stroke-linecap="butt" stroke-miterlimit="10.0"><path d="M 15.2521,114.8739 ZM 17.8676,115.0000 c -1.0189,-0.0000 -1.5861,-0.9034 -1.5861 -0.9034c -0.5672,-0.9034 -0.5672,-2.5945 -0.5672 -2.5945c 0.0000,-1.6912 0.5672,-2.5735 0.5672 -2.5735c 0.5672,-0.8824 1.5861,-0.8824 1.5861 -0.8824c 1.0084,0.0000 1.5756,0.8824 1.5756 0.8824c 0.5672,0.8824 0.5672,2.5735 0.5672 2.5735c 0.0000,1.6912 -0.5672,2.5945 -0.5672 2.5945c -0.5672,0.9034 -1.5756,0.9034 -1.5756 0.9034ZM 17.8676,115.0000 ZM 17.8676,114.3067 c 0.2941,0.0000 0.5305,-0.1628 0.5305 -0.1628c 0.2363,-0.1628 0.4097,-0.5042 0.4097 -0.5042c 0.1733,-0.3414 0.2679,-0.8718 0.2679 -0.8718c 0.0945,-0.5305 0.0945,-1.2658 0.0945 -1.2658c 0.0000,-0.7353 -0.0945,-1.2605 -0.0945 -1.2605c -0.0945,-0.5252 -0.2679,-0.8561 -0.2679 -0.8561c -0.1733,-0.3309 -0.4097,-0.4884 -0.4097 -0.4884c -0.2363,-0.1576 -0.5305,-0.1576 -0.5305 -0.1576c -0.2941,-0.0000 -0.5357,0.1576 -0.5357 0.1576c -0.2416,0.1576 -0.4149,0.4884 -0.4149 0.4884c -0.1733,0.3309 -0.2679,0.8561 -0.2679 0.8561c -0.0945,0.5252 -0.0945,1.2605 -0.0945 1.2605c 0.0000,1.4706 0.3624,2.1376 0.3624 2.1376c 0.3624,0.6670 0.9506,0.6670 0.9506 0.6670ZM 20.4727,114.8739 ZM 21.1555,114.3487 c 0.0000,-0.3046 0.1838,-0.4884 0.1838 -0.4884c 0.1838,-0.1838 0.4464,-0.1838 0.4464 -0.1838c 0.2521,0.0000 0.4359,0.1838 0.4359 0.1838c 0.1838,0.1838 0.1838,0.4884 0.1838 0.4884c 0.0000,0.2836 -0.1838,0.4674 -0.1838 0.4674c -0.1838,0.1838 -0.4359,0.1838 -0.4359 0.1838c -0.2626,-0.0000 -0.4464,-0.1838 -0.4464 -0.1838c -0.1838,-0.1838 -0.1838,-0.4674 -0.1838 -0.4674ZM 23.0882,114.8739 ZM 23.8025,113.4874 c 0.3046,0.3151 0.7090,0.5567 0.7090 0.5567c 0.4044,0.2416 1.0032,0.2416 1.0032 0.2416c 0.6092,0.0000 0.9979,-0.3309 0.9979 -0.3309c 0.3887,-0.3309 0.3887,-0.8981 0.3887 -0.8981c 0.0000,-0.2941 -0.1103,-0.5410 -0.1103 -0.5410c -0.1103,-0.2468 -0.3624,-0.4254 -0.3624 -0.4254c -0.2521,-0.1786 -0.6618,-0.2731 -0.6618 -0.2731c -0.4097,-0.0945 -1.0084,-0.0945 -1.0084 -0.0945v -0.6618 c 0.5357,0.0000 0.8981,-0.0945 0.8981 -0.0945c 0.3624,-0.0945 0.5882,-0.2626 0.5882 -0.2626c 0.2258,-0.1681 0.3204,-0.3992 0.3204 -0.3992c 0.0945,-0.2311 0.0945,-0.4937 0.0945 -0.4937c 0.0000,-0.4937 -0.3099,-0.7773 -0.3099 -0.7773c -0.3099,-0.2836 -0.8456,-0.2836 -0.8456 -0.2836c -0.4202,-0.0000 -0.7721,0.1891 -0.7721 0.1891c -0.3519,0.1891 -0.6565,0.4937 -0.6565 0.4937l -0.4622,-0.5462 c 0.3887,-0.3676 0.8561,-0.6040 0.8561 -0.6040c 0.4674,-0.2363 1.0662,-0.2363 1.0662 -0.2363c 0.4412,0.0000 0.8088,0.1155 0.8088 0.1155c 0.3676,0.1155 0.6355,0.3309 0.6355 0.3309c 0.2679,0.2153 0.4149,0.5305 0.4149 0.5305c 0.1471,0.3151 0.1471,0.7248 0.1471 0.7248c 0.0000,0.6092 -0.3361,0.9979 -0.3361 0.9979c -0.3361,0.3887 -0.8824,0.5987 -0.8824 0.5987v 0.0420 c 0.3046,0.0735 0.5672,0.2153 0.5672 0.2153c 0.2626,0.1418 0.4622,0.3571 0.4622 0.3571c 0.1996,0.2153 0.3099,0.4989 0.3099 0.4989c 0.1103,0.2836 0.1103,0.6303 0.1103 0.6303c 0.0000,0.4412 -0.1733,0.7983 -0.1733 0.7983c -0.1733,0.3571 -0.4727,0.6040 -0.4727 0.6040c -0.2994,0.2468 -0.6985,0.3782 -0.6985 0.3782c -0.3992,0.1313 -0.8613,0.1313 -0.8613 0.1313c -0.3992,-0.0000 -0.7300,-0.0788 -0.7300 -0.0788c -0.3309,-0.0788 -0.6040,-0.2101 -0.6040 -0.2101c -0.2731,-0.1313 -0.4884,-0.2994 -0.4884 -0.2994c -0.2153,-0.1681 -0.3834,-0.3571 -0.3834 -0.3571Z"/></g><g stroke-linejoin="bevel" stroke-opacity="0.0" fill-opacity="1.0" stroke="rgb(0,0,0)" stroke-width="0.0" fill="rgb(0,0,0)" stroke-linecap="butt" stroke-miterlimit="10.0"><path d="M 10.0000,38.4454 ZM 12.6155,38.5714 c -1.0189,-0.0000 -1.5861,-0.9034 -1.5861 -0.9034c -0.5672,-0.9034 -0.5672,-2.5945 -0.5672 -2.5945c 0.0000,-1.6912 0.5672,-2.5735 0.5672 -2.5735c 0.5672,-0.8824 1.5861,-0.8824 1.5861 -0.8824c 1.0084,0.0000 1.5756,0.8824 1.5756 0.8824c 0.5672,0.8824 0.5672,2.5735 0.5672 2.5735c 0.0000,1.6912 -0.5672,2.5945 -0.5672 2.5945c -0.5672,0.9034 -1.5756,0.9034 -1.5756 0.9034ZM 12.6155,38.5714 ZM 12.6155,37.8782 c 0.2941,0.0000 0.5305,-0.1628 0.5305 -0.1628c 0.2363,-0.1628 0.4097,-0.5042 0.4097 -0.5042c 0.1733,-0.3414 0.2679,-0.8718 0.2679 -0.8718c 0.0945,-0.5305 0.0945,-1.2658 0.0945 -1.2658c 0.0000,-0.7353 -0.0945,-1.2605 -0.0945 -1.2605c -0.0945,-0.5252 -0.2679,-0.8561 -0.2679 -0.8561c -0.1733,-0.3309 -0.4097,-0.4884 -0.4097 -0.4884c -0.2363,-0.1576 -0.5305,-0.1576 -0.5305 -0.1576c -0.2941,-0.0000 -0.5357,0.1576 -0.5357 0.1576c -0.2416,0.1576 -0.4149,0.4884 -0.4149 0.4884c -0.1733,0.3309 -0.2679,0.8561 -0.2679 0.8561c -0.0945,0.5252 -0.0945,1.2605 -0.0945 1.2605c 0.0000,1.4706 0.3624,2.1376 0.3624 2.1376c 0.3624,0.6670 0.9506,0.6670 0.9506 0.6670ZM 15.2206,38.4454 ZM 15.9034,37.9202 c 0.0000,-0.3046 0.1838,-0.4884 0.1838 -0.4884c 0.1838,-0.1838 0.4464,-0.1838 0.4464 -0.1838c 0.2521,0.0000 0.4359,0.1838 0.4359 0.1838c 0.1838,0.1838 0.1838,0.4884 0.1838 0.4884c 0.0000,0.2836 -0.1838,0.4674 -0.1838 0.4674c -0.1838,0.1838 -0.4359,0.1838 -0.4359 0.1838c -0.2626,-0.0000 -0.4464,-0.1838 -0.4464 -0.1838c -0.1838,-0.1838 -0.1838,-0.4674 -0.1838 -0.4674ZM 17.8361,38.4454 ZM 18.5504,37.0588 c 0.3046,0.3151 0.7090,0.5567 0.7090 0.5567c 0.4044,0.2416 1.0032,0.2416 1.0032 0.2416c 0.6092,0.0000 0.9979,-0.3309 0.9979 -0.3309c 0.3887,-0.3309 0.3887,-0.8981 0.3887 -0.8981c 0.0000,-0.2941 -0.1103,-0.5410 -0.1103 -0.5410c -0.1103,-0.2468 -0.3624,-0.4254 -0.3624 -0.4254c -0.2521,-0.1786 -0.6618,-0.2731 -0.6618 -0.2731c -0.4097,-0.0945 -1.0084,-0.0945 -1.0084 -0.0945v -0.6618 c 0.5357,0.0000 0.8981,-0.0945 0.8981 -0.0945c 0.3624,-0.0945 0.5882,-0.2626 0.5882 -0.2626c 0.2258,-0.1681 0.3204,-0.3992 0.3204 -0.3992c 0.0945,-0.2311 0.0945,-0.4937 0.0945 -0.4937c 0.0000,-0.4937 -0.3099,-0.7773 -0.3099 -0.7773c -0.3099,-0.2836 -0.8456,-0.2836 -0.8456 -0.2836c -0.4202,-0.0000 -0.7721,0.1891 -0.7721 0.1891c -0.3519,0.1891 -0.6565,0.4937 -0.6565 0.4937l -0.4622,-0.5462 c 0.3887,-0.3676 0.8561,-0.6040 0.8561 -0.6040c 0.4674,-0.2363 1.0662,-0.2363 1.0662 -0.2363c 0.4412,0.0000 0.8088,0.1155 0.8088 0.1155c 0.3676,0.1155 0.6355,0.3309 0.6355 0.3309c 0.2679,0.2153 0.4149,0.5305 0.4149 0.5305c 0.1471,0.3151 0.1471,0.7248 0.1471 0.7248c 0.0000,0.6092 -0.3361,0.9979 -0.3361 0.9979c -0.3361,0.3887 -0.8824,0.5987 -0.8824 0.5987v 0.0420 c 0.3046,0.0735 0.5672,0.2153 0.5672 0.2153c 0.2626,0.1418 0.4622,0.3571 0.4622 0.3571c 0.1996,0.2153 0.3099,0.4989 0.3099 0.4989c 0.1103,0.2836 0.1103,0.6303 0.1103 0.6303c 0.0000,0.4412 -0.1733,0.7983 -0.1733 0.7983c -0.1733,0.3571 -0.4727,0.6040 -0.4727 0.6040c -0.2994,0.2468 -0.6985,0.3782 -0.6985 0.3782c -0.3992,0.1313 -0.8613,0.1313 -0.8613 0.1313c -0.3992,-0.0000 -0.7300,-0.0788 -0.7300 -0.0788c -0.3309,-0.0788 -0.6040,-0.2101 -0.6040 -0.2101c -0.2731,-0.1313 -0.4884,-0.2994 -0.4884 -0.2994c -0.2153,-0.1681 -0.3834,-0.3571 -0.3834 -0.3571ZM 23.0567,38.4454 ZM 23.7395,37.0903 c 0.2941,0.3046 0.6985,0.5357 0.6985 0.5357c 0.4044,0.2311 0.9926,0.2311 0.9926 0.2311c 0.3046,0.0000 0.5725,-0.1103 0.5725 -0.1103c 0.2679,-0.1103 0.4674,-0.3099 0.4674 -0.3099c 0.1996,-0.1996 0.3151,-0.4832 0.3151 -0.4832c 0.1155,-0.2836 0.1155,-0.6303 0.1155 -0.6303c 0.0000,-0.6933 -0.3887,-1.0819 -0.3887 -1.0819c -0.3887,-0.3887 -1.0399,-0.3887 -1.0399 -0.3887c -0.3466,-0.0000 -0.5935,0.1050 -0.5935 0.1050c -0.2468,0.1050 -0.5515,0.3046 -0.5515 0.3046l -0.4622,-0.2941 l 0.2206,-3.2248 h 3.3508 v 0.7458 h -2.5945 l -0.1786,1.9853 c 0.2416,-0.1261 0.4832,-0.1996 0.4832 -0.1996c 0.2416,-0.0735 0.5462,-0.0735 0.5462 -0.0735c 0.4307,0.0000 0.8088,0.1261 0.8088 0.1261c 0.3782,0.1261 0.6618,0.3834 0.6618 0.3834c 0.2836,0.2574 0.4464,0.6513 0.4464 0.6513c 0.1628,0.3939 0.1628,0.9401 0.1628 0.9401c 0.0000,0.5462 -0.1891,0.9664 -0.1891 0.9664c -0.1891,0.4202 -0.5042,0.7090 -0.5042 0.7090c -0.3151,0.2889 -0.7195,0.4412 -0.7195 0.4412c -0.4044,0.1523 -0.8456,0.1523 -0.8456 0.1523c -0.3992,-0.0000 -0.7300,-0.0788 -0.7300 -0.0788c -0.3309,-0.0788 -0.5987,-0.2048 -0.5987 -0.2048c -0.2679,-0.1261 -0.4832,-0.2889 -0.4832 -0.2889c -0.2153,-0.1628 -0.3834,-0.3414 -0.3834 -0.3414Z"/></g><g stroke-linejoin="miter" stroke-opacity="1.0" fill-opacity="0.0" stroke="rgb(0,0,0)" stroke-width="0.9999999999999997" fill="rgb(0,0,0)" stroke-linecap="square" stroke-miterlimit="10.0"><path d="M 37.3109,570.0000 h 747.8204 "/></g><g stroke-linejoin="miter" stroke-opacity="1.0" fill-opacity="0.0" stroke="rgb(0,0,0)" stroke-width="0.9999999999999997" fill="rgb(0,0,0)" stroke-linecap="butt" stroke-miterlimit="10.0"><path d="M 37.3109,570.0000 v -2.0000 "/></g><g stroke-linejoin="miter" stroke-opacity="1.0" fill-opacity="0.0" stroke="rgb(0,0,0)" stroke-width="0.9999999999999997" fill="rgb(0,0,0)" stroke-linecap="butt" stroke-miterlimit="10.0"><path d="M 52.2673,570.0000 v -2.0000 "/></g><g stroke-linejoin="miter" stroke-opacity="1.0" fill-opacity="0.0" stroke="rgb(0,0,0)" stroke-width="0.9999999999999997" fill="rgb(0,0,0)" stroke-linecap="butt" stroke-miterlimit="10.0"><path d="M 67.2237,570.0000 v -2.0000 "/></g><g stroke-linejoin="miter" stroke-opacity="1.0" fill-opacity="0.0" stroke="rgb(0,0,0)" stroke-width="0.9999999999999997" fill="rgb(0,0,0)" stroke-linecap="butt" stroke-miterlimit="10.0"><path d="M 82.1801,570.0000 v -2.0000 "/></g><g stroke-linejoin="miter" stroke-opacity="1.0" fill-opacity="0.0" stroke="rgb(0,0,0)" stroke-width="0.9999999999999997" fill="rgb(0,0,0)" stroke-linecap="butt" stroke-miterlimit="10.0"><path d="M 97.1366,570.0000 v -2.0000 "/></g><g stroke-linejoin="miter" stroke-opacity="1.0" fill-opacity="0.0" stroke="rgb(0,0,0)" stroke-width="0.9999999999999997" fill="rgb(0,0,0)" stroke-linecap="butt" stroke-miterlimit="10.0"><path d="M 112.0930,570.0000 v -2.0000 "/></g><g stroke-linejoin="miter" stroke-opacity="1.0" fill-opacity="0.0" stroke="rgb(0,0,0)" stroke-width="0.9999999999999997" fill="rgb(0,0,0)" stroke-linecap="butt" stroke-miterlimit="10.0"><path d="M 127.0494,570.0000 v -2.0000 "/></g><g stroke-linejoin="miter" stroke-opacity="1.0" fill-opacity="0.0" stroke="rgb(0,0,0)" stroke-width="0.9999999999999997" fill="rgb(0,0,0)" stroke-linecap="butt" stroke-miterlimit="10.0"><path d="M 142.0058,570.0000 v -2.0000 "/></g><g stroke-linejoin="miter" stroke-opacity="1.0" fill-opacity="0.0" stroke="rgb(0,0,0)" stroke-width="0.9999999999999997" fill="rgb(0,0,0)" stroke-linecap="butt" stroke-miterlimit="10.0"><path d="M 156.9622,570.0000 v -2.0000 "/></g><g stroke-linejoin="miter" stroke-opacity="1.0" fill-opacity="0.0" stroke="rgb(0,0,0)" stroke-width="0.9999999999999997" fill="rgb(0,0,0)" stroke-linecap="butt" stroke-miterlimit="10.0"><path d="M 171.9186,570.0000 v -2.0000 "/></g><g stroke-linejoin="miter" stroke-opacity="1.0" fill-opacity="0.0" stroke="rgb(0,0,0)" stroke-width="0.9999999999999997" fill="rgb(0,0,0)" stroke-linecap="butt" stroke-miterlimit="10.0"><path d="M 186.8750,570.0000 v -2.0000 "/></g><g stroke-linejoin="miter" stroke-opacity="1.0" fill-opacity="0.0" stroke="rgb(0,0,0)" stroke-width="0.9999999999999997" fill="rgb(0,0,0)" stroke-linecap="butt" stroke-miterlimit="10.0"><path d="M 201.8314,570.0000 v -2.0000 "/></g><g stroke-linejoin="miter" stroke-opacity="1.0" fill-opacity="0.0" stroke="rgb(0,0,0)" stroke-width="0.9999999999999997" fill="rgb(0,0,0)" stroke-linecap="butt" stroke-miterlimit="10.0"><path d="M 216.7878,570.0000 v -2.0000 "/></g><g stroke-linejoin="miter" stroke-opacity="1.0" fill-opacity="0.0" stroke="rgb(0,0,0)" stroke-width="0.9999999999999997" fill="rgb(0,0,0)" stroke-linecap="butt" stroke-miterlimit="10.0"><path d="M 231.7442,570.0000 v -2.0000 "/></g><g stroke-linejoin="miter" stroke-opacity="1.0" fill-opacity="0.0" stroke="rgb(0,0,0)" stroke-width="0.9999999999999997" fill="rgb(0,0,0)" stroke-linecap="butt" stroke-miterlimit="10.0"><path d="M 246.7006,570.0000 v -2.0000 "/></g><g stroke-linejoin="miter" stroke-opacity="1.0" fill-opacity="0.0" stroke="rgb(0,0,0)" stroke-width="0.9999999999999997" fill="rgb(0,0,0)" stroke-linecap="butt" stroke-miterlimit="10.0"><path d="M 261.6570,570.0000 v -2.0000 "/></g><g stroke-linejoin="miter" stroke-opacity="1.0" fill-opacity="0.0" stroke="rgb(0,0,0)" stroke-width="0.9999999999999997" fill="rgb(0,0,0)" stroke-linecap="butt" stroke-miterlimit="10.0"><path d="M 276.6134,570.0000 v -2.0000 "/></g><g stroke-linejoin="miter" stroke-opacity="1.0" fill-opacity="0.0" stroke="rgb(0,0,0)" stroke-width="0.9999999999999997" fill="rgb(0,0,0)" stroke-linecap="butt" stroke-miterlimit="10.0"><path d="M 291.5699,570.0000 v -2.0000 "/></g><g stroke-linejoin="miter" stroke-opacity="1.0" fill-opacity="0.0" stroke="rgb(0,0,0)" stroke-width="0.9999999999999997" fill="rgb(0,0,0)" stroke-linecap="butt" stroke-miterlimit="10.0"><path d="M 306.5263,570.0000 v -2.0000 "/></g><g stroke-linejoin="miter" stroke-opacity="1.0" fill-opacity="0.0" stroke="rgb(0,0,0)" stroke-width="0.9999999999999997" fill="rgb(0,0,0)" stroke-linecap="butt" stroke-miterlimit="10.0"><path d="M 321.4827,570.0000 v -2.0000 "/></g><g stroke-linejoin="miter" stroke-opacity="1.0" fill-opacity="0.0" stroke="rgb(0,0,0)" stroke-width="0.9999999999999997" fill="rgb(0,0,0)" stroke-linecap="butt" stroke-miterlimit="10.0"><path d="M 336.4391,570.0000 v -2.0000 "/></g><g stroke-linejoin="miter" stroke-opacity="1.0" fill-opacity="0.0" stroke="rgb(0,0,0)" stroke-width="0.9999999999999997" fill="rgb(0,0,0)" stroke-linecap="butt" stroke-miterlimit="10.0"><path d="M 351.3955,570.0000 v -2.0000 "/></g><g stroke-linejoin="miter" stroke-opacity="1.0" fill-opacity="0.0" stroke="rgb(0,0,0)" stroke-width="0.9999999999999997" fill="rgb(0,0,0)" stroke-linecap="butt" stroke-miterlimit="10.0"><path d="M 366.3519,570.0000 v -2.0000 "/></g><g stroke-linejoin="miter" stroke-opacity="1.0" fill-opacity="0.0" stroke="rgb(0,0,0)" stroke-width="0.9999999999999997" fill="rgb(0,0,0)" stroke-linecap="butt" stroke-miterlimit="10.0"><path d="M 381.3083,570.0000 v -2.0000 "/></g><g stroke-linejoin="miter" stroke-opacity="1.0" fill-opacity="0.0" stroke="rgb(0,0,0)" stroke-width="0.9999999999999997" fill="rgb(0,0,0)" stroke-linecap="butt" stroke-miterlimit="10.0"><path d="M 396.2647,570.0000 v -2.0000 "/></g><g stroke-linejoin="miter" stroke-opacity="1.0" fill-opacity="0.0" stroke="rgb(0,0,0)" stroke-width="0.9999999999999997" fill="rgb(0,0,0)" stroke-linecap="butt" stroke-miterlimit="10.0"><path d="M 411.2211,570.0000 v -2.0000 "/></g><g stroke-linejoin="miter" stroke-opacity="1.0" fill-opacity="0.0" stroke="rgb(0,0,0)" stroke-width="0.9999999999999997" fill="rgb(0,0,0)" stroke-linecap="butt" stroke-miterlimit="10.0"><path d="M 426.1775,570.0000 v -2.0000 "/></g><g stroke-linejoin="miter" stroke-opacity="1.0" fill-opacity="0.0" stroke="rgb(0,0,0)" stroke-width="0.9999999999999997" fill="rgb(0,0,0)" stroke-linecap="butt" stroke-miterlimit="10.0"><path d="M 441.1339,570.0000 v -2.0000 "/></g><g stroke-linejoin="miter" stroke-opacity="1.0" fill-opacity="0.0" stroke="rgb(0,0,0)" stroke-width="0.9999999999999997" fill="rgb(0,0,0)" stroke-linecap="butt" stroke-miterlimit="10.0"><path d="M 456.0903,570.0000 v -2.0000 "/></g><g stroke-linejoin="miter" stroke-opacity="1.0" fill-opacity="0.0" stroke="rgb(0,0,0)" stroke-width="0.9999999999999997" fill="rgb(0,0,0)" stroke-linecap="butt" stroke-miterlimit="10.0"><path d="M 471.0467,570.0000 v -2.0000 "/></g><g stroke-linejoin="miter" stroke-opacity="1.0" fill-opacity="0.0" stroke="rgb(0,0,0)" stroke-width="0.9999999999999997" fill="rgb(0,0,0)" stroke-linecap="butt" stroke-miterlimit="10.0"><path d="M 486.0032,570.0000 v -2.0000 "/></g><g stroke-linejoin="miter" stroke-opacity="1.0" fill-opacity="0.0" stroke="rgb(0,0,0)" stroke-width="0.9999999999999997" fill="rgb(0,0,0)" stroke-linecap="butt" stroke-miterlimit="10.0"><path d="M 500.9596,570.0000 v -2.0000 "/></g><g stroke-linejoin="miter" stroke-opacity="1.0" fill-opacity="0.0" stroke="rgb(0,0,0)" stroke-width="0.9999999999999997" fill="rgb(0,0,0)" stroke-linecap="butt" stroke-miterlimit="10.0"><path d="M 515.9160,570.0000 v -2.0000 "/></g><g stroke-linejoin="miter" stroke-opacity="1.0" fill-opacity="0.0" stroke="rgb(0,0,0)" stroke-width="0.9999999999999997" fill="rgb(0,0,0)" stroke-linecap="butt" stroke-miterlimit="10.0"><path d="M 530.8724,570.0000 v -2.0000 "/></g><g stroke-linejoin="miter" stroke-opacity="1.0" fill-opacity="0.0" stroke="rgb(0,0,0)" stroke-width="0.9999999999999997" fill="rgb(0,0,0)" stroke-linecap="butt" stroke-miterlimit="10.0"><path d="M 545.8288,570.0000 v -2.0000 "/></g><g stroke-linejoin="miter" stroke-opacity="1.0" fill-opacity="0.0" stroke="rgb(0,0,0)" stroke-width="0.9999999999999997" fill="rgb(0,0,0)" stroke-linecap="butt" stroke-miterlimit="10.0"><path d="M 560.7852,570.0000 v -2.0000 "/></g><g stroke-linejoin="miter" stroke-opacity="1.0" fill-opacity="0.0" stroke="rgb(0,0,0)" stroke-width="0.9999999999999997" fill="rgb(0,0,0)" stroke-linecap="butt" stroke-miterlimit="10.0"><path d="M 575.7416,570.0000 v -2.0000 "/></g><g stroke-linejoin="miter" stroke-opacity="1.0" fill-opacity="0.0" stroke="rgb(0,0,0)" stroke-width="0.9999999999999997" fill="rgb(0,0,0)" stroke-linecap="butt" stroke-miterlimit="10.0"><path d="M 590.6980,570.0000 v -2.0000 "/></g><g stroke-linejoin="miter" stroke-opacity="1.0" fill-opacity="0.0" stroke="rgb(0,0,0)" stroke-width="0.9999999999999997" fill="rgb(0,0,0)" stroke-linecap="butt" stroke-miterlimit="10.0"><path d="M 605.6544,570.0000 v -2.0000 "/></g><g stroke-linejoin="miter" stroke-opacity="1.0" fill-opacity="0.0" stroke="rgb(0,0,0)" stroke-width="0.9999999999999997" fill="rgb(0,0,0)" stroke-linecap="butt" stroke-miterlimit="10.0"><path d="M 620.6108,570.0000 v -2.0000 "/></g><g stroke-linejoin="miter" stroke-opacity="1.0" fill-opacity="0.0" stroke="rgb(0,0,0)" stroke-width="0.9999999999999997" fill="rgb(0,0,0)" stroke-linecap="butt" stroke-miterlimit="10.0"><path d="M 635.5672,570.0000 v -2.0000 "/></g><g stroke-linejoin="miter" stroke-opacity="1.0" fill-opacity="0.0" stroke="rgb(0,0,0)" stroke-width="0.9999999999999997" fill="rgb(0,0,0)" stroke-linecap="butt" stroke-miterlimit="10.0"><path d="M 650.5236,570.0000 v -2.0000 "/></g><g stroke-linejoin="miter" stroke-opacity="1.0" fill-opacity="0.0" stroke="rgb(0,0,0)" stroke-width="0.9999999999999997" fill="rgb(0,0,0)" stroke-linecap="butt" stroke-miterlimit="10.0"><path d="M 665.4800,570.0000 v -2.0000 "/></g><g stroke-linejoin="miter" stroke-opacity="1.0" fill-opacity="0.0" stroke="rgb(0,0,0)" stroke-width="0.9999999999999997" fill="rgb(0,0,0)" stroke-linecap="butt" stroke-miterlimit="10.0"><path d="M 680.4364,570.0000 v -2.0000 "/></g><g stroke-linejoin="miter" stroke-opacity="1.0" fill-opacity="0.0" stroke="rgb(0,0,0)" stroke-width="0.9999999999999997" fill="rgb(0,0,0)" stroke-linecap="butt" stroke-miterlimit="10.0"><path d="M 695.3929,570.0000 v -2.0000 "/></g><g stroke-linejoin="miter" stroke-opacity="1.0" fill-opacity="0.0" stroke="rgb(0,0,0)" stroke-width="0.9999999999999997" fill="rgb(0,0,0)" stroke-linecap="butt" stroke-miterlimit="10.0"><path d="M 710.3493,570.0000 v -2.0000 "/></g><g stroke-linejoin="miter" stroke-opacity="1.0" fill-opacity="0.0" stroke="rgb(0,0,0)" stroke-width="0.9999999999999997" fill="rgb(0,0,0)" stroke-linecap="butt" stroke-miterlimit="10.0"><path d="M 725.3057,570.0000 v -2.0000 "/></g><g stroke-linejoin="miter" stroke-opacity="1.0" fill-opacity="0.0" stroke="rgb(0,0,0)" stroke-width="0.9999999999999997" fill="rgb(0,0,0)" stroke-linecap="butt" stroke-miterlimit="10.0"><path d="M 740.2621,570.0000 v -2.0000 "/></g><g stroke-linejoin="miter" stroke-opacity="1.0" fill-opacity="0.0" stroke="rgb(0,0,0)" stroke-width="0.9999999999999997" fill="rgb(0,0,0)" stroke-linecap="butt" stroke-miterlimit="10.0"><path d="M 755.2185,570.0000 v -2.0000 "/></g><g stroke-linejoin="miter" stroke-opacity="1.0" fill-opacity="0.0" stroke="rgb(0,0,0)" stroke-width="0.9999999999999997" fill="rgb(0,0,0)" stroke-linecap="butt" stroke-miterlimit="10.0"><path d="M 770.1749,570.0000 v -2.0000 "/></g><g stroke-linejoin="miter" stroke-opacity="1.0" fill-opacity="0.0" stroke="rgb(0,0,0)" stroke-width="0.9999999999999997" fill="rgb(0,0,0)" stroke-linecap="butt" stroke-miterlimit="10.0"><path d="M 785.1313,570.0000 v -2.0000 "/></g><g stroke-linejoin="miter" stroke-opacity="1.0" fill-opacity="0.0" stroke="rgb(0,0,0)" stroke-width="0.9999999999999997" fill="rgb(0,0,0)" stroke-linecap="butt" stroke-miterlimit="10.0"><path d="M 37.3109,570.0000 v -5.0000 "/></g><g stroke-linejoin="miter" stroke-opacity="1.0" fill-opacity="0.0" stroke="rgb(0,0,0)" stroke-width="0.9999999999999997" fill="rgb(0,0,0)" stroke-linecap="butt" stroke-miterlimit="10.0"><path d="M 186.8750,570.0000 v -5.0000 "/></g><g stroke-linejoin="miter" stroke-opacity="1.0" fill-opacity="0.0" stroke="rgb(0,0,0)" stroke-width="0.9999999999999997" fill="rgb(0,0,0)" stroke-linecap="butt" stroke-miterlimit="10.0"><path d="M 336.4391,570.0000 v -5.0000 "/></g><g stroke-linejoin="miter" stroke-opacity="1.0" fill-opacity="0.0" stroke="rgb(0,0,0)" stroke-width="0.9999999999999997" fill="rgb(0,0,0)" stroke-linecap="butt" stroke-miterlimit="10.0"><path d="M 486.0032,570.0000 v -5.0000 "/></g><g stroke-linejoin="miter" stroke-opacity="1.0" fill-opacity="0.0" stroke="rgb(0,0,0)" stroke-width="0.9999999999999997" fill="rgb(0,0,0)" stroke-linecap="butt" stroke-miterlimit="10.0"><path d="M 635.5672,570.0000 v -5.0000 "/></g><g stroke-linejoin="miter" stroke-opacity="1.0" fill-opacity="0.0" stroke="rgb(0,0,0)" stroke-width="0.9999999999999997" fill="rgb(0,0,0)" stroke-linecap="butt" stroke-miterlimit="10.0"><path d="M 785.1313,570.0000 v -5.0000 "/></g><g stroke-linejoin="bevel" stroke-opacity="0.0" fill-opacity="1.0" stroke="rgb(0,0,0)" stroke-width="0.0" fill="rgb(0,0,0)" stroke-linecap="butt" stroke-miterlimit="10.0"><path d="M 32.4947,590.0000 ZM 32.9149,589.4853 c 0.7563,-0.7563 1.3445,-1.3655 1.3445 -1.3655c 0.5882,-0.6092 0.9874,-1.1292 0.9874 -1.1292c 0.3992,-0.5200 0.6092,-0.9559 0.6092 -0.9559c 0.2101,-0.4359 0.2101,-0.8456 0.2101 -0.8456c 0.0000,-0.5777 -0.3151,-0.9454 -0.3151 -0.9454c -0.3151,-0.3676 -0.9559,-0.3676 -0.9559 -0.3676c -0.4202,-0.0000 -0.7773,0.2363 -0.7773 0.2363c -0.3571,0.2363 -0.6513,0.5725 -0.6513 0.5725l -0.4937,-0.4937 c 0.4202,-0.4622 0.8929,-0.7405 0.8929 -0.7405c 0.4727,-0.2784 1.1345,-0.2784 1.1345 -0.2784c 0.9349,0.0000 1.4706,0.5410 1.4706 0.5410c 0.5357,0.5410 0.5357,1.4338 0.5357 1.4338c 0.0000,0.4727 -0.2048,0.9506 -0.2048 0.9506c -0.2048,0.4779 -0.5672,0.9874 -0.5672 0.9874c -0.3624,0.5095 -0.8613,1.0609 -0.8613 1.0609c -0.4989,0.5515 -1.0977,1.1712 -1.0977 1.1712c 0.2731,-0.0210 0.5672,-0.0420 0.5672 -0.0420c 0.2941,-0.0210 0.5567,-0.0210 0.5567 -0.0210h 1.9433 v 0.7458 h -4.3277 v -0.5147 ZM 37.7153,590.0000 ZM 38.9233,588.2038 c 0.0000,0.2836 0.1103,0.5147 0.1103 0.5147c 0.1103,0.2311 0.3046,0.4044 0.3046 0.4044c 0.1943,0.1733 0.4569,0.2679 0.4569 0.2679c 0.2626,0.0945 0.5672,0.0945 0.5672 0.0945c 0.5882,0.0000 0.9506,-0.3256 0.9506 -0.3256c 0.3624,-0.3256 0.3624,-0.8508 0.3624 -0.8508c 0.0000,-0.3256 -0.1471,-0.5567 -0.1471 -0.5567c -0.1471,-0.2311 -0.3992,-0.4044 -0.3992 -0.4044c -0.2521,-0.1733 -0.5830,-0.3151 -0.5830 -0.3151c -0.3309,-0.1418 -0.6880,-0.2889 -0.6880 -0.2889c -0.3992,0.2731 -0.6670,0.6355 -0.6670 0.6355c -0.2679,0.3624 -0.2679,0.8246 -0.2679 0.8246ZM 38.9233,588.2038 ZM 40.8141,586.3445 c 0.3361,-0.3046 0.5200,-0.6408 0.5200 -0.6408c 0.1838,-0.3361 0.1838,-0.7038 0.1838 -0.7038c 0.0000,-0.5042 -0.3046,-0.8456 -0.3046 -0.8456c -0.3046,-0.3414 -0.8613,-0.3414 -0.8613 -0.3414c -0.4727,-0.0000 -0.7773,0.2941 -0.7773 0.2941c -0.3046,0.2941 -0.3046,0.7878 -0.3046 0.7878c 0.0000,0.3046 0.1261,0.5200 0.1261 0.5200c 0.1261,0.2153 0.3414,0.3834 0.3414 0.3834c 0.2153,0.1681 0.4937,0.2994 0.4937 0.2994c 0.2784,0.1313 0.5830,0.2468 0.5830 0.2468ZM 40.8141,586.3445 ZM 38.1460,588.2878 c 0.0000,-0.3256 0.1103,-0.6040 0.1103 -0.6040c 0.1103,-0.2784 0.2836,-0.5042 0.2836 -0.5042c 0.1733,-0.2258 0.3992,-0.3992 0.3992 -0.3992c 0.2258,-0.1733 0.4674,-0.2994 0.4674 -0.2994v -0.0420 c -0.3676,-0.2626 -0.6513,-0.6355 -0.6513 -0.6355c -0.2836,-0.3729 -0.2836,-0.9086 -0.2836 -0.9086c 0.0000,-0.3887 0.1471,-0.7038 0.1471 -0.7038c 0.1471,-0.3151 0.3992,-0.5410 0.3992 -0.5410c 0.2521,-0.2258 0.5987,-0.3519 0.5987 -0.3519c 0.3466,-0.1261 0.7563,-0.1261 0.7563 -0.1261c 0.4412,0.0000 0.7878,0.1313 0.7878 0.1313c 0.3466,0.1313 0.5935,0.3676 0.5935 0.3676c 0.2468,0.2363 0.3782,0.5672 0.3782 0.5672c 0.1313,0.3309 0.1313,0.7195 0.1313 0.7195c 0.0000,0.2626 -0.0893,0.5042 -0.0893 0.5042c -0.0893,0.2416 -0.2206,0.4517 -0.2206 0.4517c -0.1313,0.2101 -0.2941,0.3782 -0.2941 0.3782c -0.1628,0.1681 -0.3204,0.2836 -0.3204 0.2836v 0.0420 c 0.2206,0.1261 0.4307,0.2889 0.4307 0.2889c 0.2101,0.1628 0.3729,0.3676 0.3729 0.3676c 0.1628,0.2048 0.2626,0.4674 0.2626 0.4674c 0.0998,0.2626 0.0998,0.5987 0.0998 0.5987c 0.0000,0.3782 -0.1576,0.7038 -0.1576 0.7038c -0.1576,0.3256 -0.4412,0.5672 -0.4412 0.5672c -0.2836,0.2416 -0.6828,0.3782 -0.6828 0.3782c -0.3992,0.1366 -0.8824,0.1366 -0.8824 0.1366c -0.4727,-0.0000 -0.8771,-0.1366 -0.8771 -0.1366c -0.4044,-0.1366 -0.6933,-0.3834 -0.6933 -0.3834c -0.2889,-0.2468 -0.4569,-0.5830 -0.4569 -0.5830c -0.1681,-0.3361 -0.1681,-0.7353 -0.1681 -0.7353Z"/></g><g stroke-linejoin="bevel" stroke-opacity="0.0" fill-opacity="1.0" stroke="rgb(0,0,0)" stroke-width="0.0" fill="rgb(0,0,0)" stroke-linecap="butt" stroke-miterlimit="10.0"><path d="M 182.0221,590.0000 ZM 182.7363,588.6134 c 0.3046,0.3151 0.7090,0.5567 0.7090 0.5567c 0.4044,0.2416 1.0032,0.2416 1.0032 0.2416c 0.6092,0.0000 0.9979,-0.3309 0.9979 -0.3309c 0.3887,-0.3309 0.3887,-0.8981 0.3887 -0.8981c 0.0000,-0.2941 -0.1103,-0.5410 -0.1103 -0.5410c -0.1103,-0.2468 -0.3624,-0.4254 -0.3624 -0.4254c -0.2521,-0.1786 -0.6618,-0.2731 -0.6618 -0.2731c -0.4097,-0.0945 -1.0084,-0.0945 -1.0084 -0.0945v -0.6618 c 0.5357,0.0000 0.8981,-0.0945 0.8981 -0.0945c 0.3624,-0.0945 0.5882,-0.2626 0.5882 -0.2626c 0.2258,-0.1681 0.3204,-0.3992 0.3204 -0.3992c 0.0945,-0.2311 0.0945,-0.4937 0.0945 -0.4937c 0.0000,-0.4937 -0.3099,-0.7773 -0.3099 -0.7773c -0.3099,-0.2836 -0.8456,-0.2836 -0.8456 -0.2836c -0.4202,-0.0000 -0.7721,0.1891 -0.7721 0.1891c -0.3519,0.1891 -0.6565,0.4937 -0.6565 0.4937l -0.4622,-0.5462 c 0.3887,-0.3676 0.8561,-0.6040 0.8561 -0.6040c 0.4674,-0.2363 1.0662,-0.2363 1.0662 -0.2363c 0.4412,0.0000 0.8088,0.1155 0.8088 0.1155c 0.3676,0.1155 0.6355,0.3309 0.6355 0.3309c 0.2679,0.2153 0.4149,0.5305 0.4149 0.5305c 0.1471,0.3151 0.1471,0.7248 0.1471 0.7248c 0.0000,0.6092 -0.3361,0.9979 -0.3361 0.9979c -0.3361,0.3887 -0.8824,0.5987 -0.8824 0.5987v 0.0420 c 0.3046,0.0735 0.5672,0.2153 0.5672 0.2153c 0.2626,0.1418 0.4622,0.3571 0.4622 0.3571c 0.1996,0.2153 0.3099,0.4989 0.3099 0.4989c 0.1103,0.2836 0.1103,0.6303 0.1103 0.6303c 0.0000,0.4412 -0.1733,0.7983 -0.1733 0.7983c -0.1733,0.3571 -0.4727,0.6040 -0.4727 0.6040c -0.2994,0.2468 -0.6985,0.3782 -0.6985 0.3782c -0.3992,0.1313 -0.8613,0.1313 -0.8613 0.1313c -0.3992,-0.0000 -0.7300,-0.0788 -0.7300 -0.0788c -0.3309,-0.0788 -0.6040,-0.2101 -0.6040 -0.2101c -0.2731,-0.1313 -0.4884,-0.2994 -0.4884 -0.2994c -0.2153,-0.1681 -0.3834,-0.3571 -0.3834 -0.3571ZM 187.2426,590.0000 ZM 189.8582,590.1261 c -1.0189,-0.0000 -1.5861,-0.9034 -1.5861 -0.9034c -0.5672,-0.9034 -0.5672,-2.5945 -0.5672 -2.5945c 0.0000,-1.6912 0.5672,-2.5735 0.5672 -2.5735c 0.5672,-0.8824 1.5861,-0.8824 1.5861 -0.8824c 1.0084,0.0000 1.5756,0.8824 1.5756 0.8824c 0.5672,0.8824 0.5672,2.5735 0.5672 2.5735c 0.0000,1.6912 -0.5672,2.5945 -0.5672 2.5945c -0.5672,0.9034 -1.5756,0.9034 -1.5756 0.9034ZM 189.8582,590.1261 ZM 189.8582,589.4328 c 0.2941,0.0000 0.5305,-0.1628 0.5305 -0.1628c 0.2363,-0.1628 0.4097,-0.5042 0.4097 -0.5042c 0.1733,-0.3414 0.2679,-0.8718 0.2679 -0.8718c 0.0945,-0.5305 0.0945,-1.2658 0.0945 -1.2658c 0.0000,-0.7353 -0.0945,-1.2605 -0.0945 -1.2605c -0.0945,-0.5252 -0.2679,-0.8561 -0.2679 -0.8561c -0.1733,-0.3309 -0.4097,-0.4884 -0.4097 -0.4884c -0.2363,-0.1576 -0.5305,-0.1576 -0.5305 -0.1576c -0.2941,-0.0000 -0.5357,0.1576 -0.5357 0.1576c -0.2416,0.1576 -0.4149,0.4884 -0.4149 0.4884c -0.1733,0.3309 -0.2679,0.8561 -0.2679 0.8561c -0.0945,0.5252 -0.0945,1.2605 -0.0945 1.2605c 0.0000,1.4706 0.3624,2.1376 0.3624 2.1376c 0.3624,0.6670 0.9506,0.6670 0.9506 0.6670Z"/></g><g stroke-linejoin="bevel" stroke-opacity="0.0" fill-opacity="1.0" stroke="rgb(0,0,0)" stroke-width="0.0" fill="rgb(0,0,0)" stroke-linecap="butt" stroke-miterlimit="10.0"><path d="M 331.5914,590.0000 ZM 332.3057,588.6134 c 0.3046,0.3151 0.7090,0.5567 0.7090 0.5567c 0.4044,0.2416 1.0032,0.2416 1.0032 0.2416c 0.6092,0.0000 0.9979,-0.3309 0.9979 -0.3309c 0.3887,-0.3309 0.3887,-0.8981 0.3887 -0.8981c 0.0000,-0.2941 -0.1103,-0.5410 -0.1103 -0.5410c -0.1103,-0.2468 -0.3624,-0.4254 -0.3624 -0.4254c -0.2521,-0.1786 -0.6618,-0.2731 -0.6618 -0.2731c -0.4097,-0.0945 -1.0084,-0.0945 -1.0084 -0.0945v -0.6618 c 0.5357,0.0000 0.8981,-0.0945 0.8981 -0.0945c 0.3624,-0.0945 0.5882,-0.2626 0.5882 -0.2626c 0.2258,-0.1681 0.3204,-0.3992 0.3204 -0.3992c 0.0945,-0.2311 0.0945,-0.4937 0.0945 -0.4937c 0.0000,-0.4937 -0.3099,-0.7773 -0.3099 -0.7773c -0.3099,-0.2836 -0.8456,-0.2836 -0.8456 -0.2836c -0.4202,-0.0000 -0.7721,0.1891 -0.7721 0.1891c -0.3519,0.1891 -0.6565,0.4937 -0.6565 0.4937l -0.4622,-0.5462 c 0.3887,-0.3676 0.8561,-0.6040 0.8561 -0.6040c 0.4674,-0.2363 1.0662,-0.2363 1.0662 -0.2363c 0.4412,0.0000 0.8088,0.1155 0.8088 0.1155c 0.3676,0.1155 0.6355,0.3309 0.6355 0.3309c 0.2679,0.2153 0.4149,0.5305 0.4149 0.5305c 0.1471,0.3151 0.1471,0.7248 0.1471 0.7248c 0.0000,0.6092 -0.3361,0.9979 -0.3361 0.9979c -0.3361,0.3887 -0.8824,0.5987 -0.8824 0.5987v 0.0420 c 0.3046,0.0735 0.5672,0.2153 0.5672 0.2153c 0.2626,0.1418 0.4622,0.3571 0.4622 0.3571c 0.1996,0.2153 0.3099,0.4989 0.3099 0.4989c 0.1103,0.2836 0.1103,0.6303 0.1103 0.6303c 0.0000,0.4412 -0.1733,0.7983 -0.1733 0.7983c -0.1733,0.3571 -0.4727,0.6040 -0.4727 0.6040c -0.2994,0.2468 -0.6985,0.3782 -0.6985 0.3782c -0.3992,0.1313 -0.8613,0.1313 -0.8613 0.1313c -0.3992,-0.0000 -0.7300,-0.0788 -0.7300 -0.0788c -0.3309,-0.0788 -0.6040,-0.2101 -0.6040 -0.2101c -0.2731,-0.1313 -0.4884,-0.2994 -0.4884 -0.2994c -0.2153,-0.1681 -0.3834,-0.3571 -0.3834 -0.3571ZM 336.8120,590.0000 ZM 337.2321,589.4853 c 0.7563,-0.7563 1.3445,-1.3655 1.3445 -1.3655c 0.5882,-0.6092 0.9874,-1.1292 0.9874 -1.1292c 0.3992,-0.5200 0.6092,-0.9559 0.6092 -0.9559c 0.2101,-0.4359 0.2101,-0.8456 0.2101 -0.8456c 0.0000,-0.5777 -0.3151,-0.9454 -0.3151 -0.9454c -0.3151,-0.3676 -0.9559,-0.3676 -0.9559 -0.3676c -0.4202,-0.0000 -0.7773,0.2363 -0.7773 0.2363c -0.3571,0.2363 -0.6513,0.5725 -0.6513 0.5725l -0.4937,-0.4937 c 0.4202,-0.4622 0.8929,-0.7405 0.8929 -0.7405c 0.4727,-0.2784 1.1345,-0.2784 1.1345 -0.2784c 0.9349,0.0000 1.4706,0.5410 1.4706 0.5410c 0.5357,0.5410 0.5357,1.4338 0.5357 1.4338c 0.0000,0.4727 -0.2048,0.9506 -0.2048 0.9506c -0.2048,0.4779 -0.5672,0.9874 -0.5672 0.9874c -0.3624,0.5095 -0.8613,1.0609 -0.8613 1.0609c -0.4989,0.5515 -1.0977,1.1712 -1.0977 1.1712c 0.2731,-0.0210 0.5672,-0.0420 0.5672 -0.0420c 0.2941,-0.0210 0.5567,-0.0210 0.5567 -0.0210h 1.9433 v 0.7458 h -4.3277 v -0.5147 Z"/></g><g stroke-linejoin="bevel" stroke-opacity="0.0" fill-opacity="1.0" stroke="rgb(0,0,0)" stroke-width="0.0" fill="rgb(0,0,0)" stroke-linecap="butt" stroke-miterlimit="10.0"><path d="M 481.0662,590.0000 ZM 481.7805,588.6134 c 0.3046,0.3151 0.7090,0.5567 0.7090 0.5567c 0.4044,0.2416 1.0032,0.2416 1.0032 0.2416c 0.6092,0.0000 0.9979,-0.3309 0.9979 -0.3309c 0.3887,-0.3309 0.3887,-0.8981 0.3887 -0.8981c 0.0000,-0.2941 -0.1103,-0.5410 -0.1103 -0.5410c -0.1103,-0.2468 -0.3624,-0.4254 -0.3624 -0.4254c -0.2521,-0.1786 -0.6618,-0.2731 -0.6618 -0.2731c -0.4097,-0.0945 -1.0084,-0.0945 -1.0084 -0.0945v -0.6618 c 0.5357,0.0000 0.8981,-0.0945 0.8981 -0.0945c 0.3624,-0.0945 0.5882,-0.2626 0.5882 -0.2626c 0.2258,-0.1681 0.3204,-0.3992 0.3204 -0.3992c 0.0945,-0.2311 0.0945,-0.4937 0.0945 -0.4937c 0.0000,-0.4937 -0.3099,-0.7773 -0.3099 -0.7773c -0.3099,-0.2836 -0.8456,-0.2836 -0.8456 -0.2836c -0.4202,-0.0000 -0.7721,0.1891 -0.7721 0.1891c -0.3519,0.1891 -0.6565,0.4937 -0.6565 0.4937l -0.4622,-0.5462 c 0.3887,-0.3676 0.8561,-0.6040 0.8561 -0.6040c 0.4674,-0.2363 1.0662,-0.2363 1.0662 -0.2363c 0.4412,0.0000 0.8088,0.1155 0.8088 0.1155c 0.3676,0.1155 0.6355,0.3309 0.6355 0.3309c 0.2679,0.2153 0.4149,0.5305 0.4149 0.5305c 0.1471,0.3151 0.1471,0.7248 0.1471 0.7248c 0.0000,0.6092 -0.3361,0.9979 -0.3361 0.9979c -0.3361,0.3887 -0.8824,0.5987 -0.8824 0.5987v 0.0420 c 0.3046,0.0735 0.5672,0.2153 0.5672 0.2153c 0.2626,0.1418 0.4622,0.3571 0.4622 0.3571c 0.1996,0.2153 0.3099,0.4989 0.3099 0.4989c 0.1103,0.2836 0.1103,0.6303 0.1103 0.6303c 0.0000,0.4412 -0.1733,0.7983 -0.1733 0.7983c -0.1733,0.3571 -0.4727,0.6040 -0.4727 0.6040c -0.2994,0.2468 -0.6985,0.3782 -0.6985 0.3782c -0.3992,0.1313 -0.8613,0.1313 -0.8613 0.1313c -0.3992,-0.0000 -0.7300,-0.0788 -0.7300 -0.0788c -0.3309,-0.0788 -0.6040,-0.2101 -0.6040 -0.2101c -0.2731,-0.1313 -0.4884,-0.2994 -0.4884 -0.2994c -0.2153,-0.1681 -0.3834,-0.3571 -0.3834 -0.3571ZM 486.2868,590.0000 ZM 489.4800,587.4580 v -1.9433 c 0.0000,-0.2731 0.0158,-0.6460 0.0158 -0.6460c 0.0158,-0.3729 0.0368,-0.6460 0.0368 -0.6460h -0.0420 c -0.1261,0.2416 -0.2626,0.4727 -0.2626 0.4727c -0.1366,0.2311 -0.2836,0.4727 -0.2836 0.4727l -1.5651,2.2899 h 2.1008 ZM 489.4800,587.4580 ZM 491.2132,588.1513 h -0.9139 v 1.8487 h -0.8193 v -1.8487 h -3.0147 v -0.5672 l 2.8676,-4.2857 h 0.9664 v 4.1597 h 0.9139 v 0.6933 Z"/></g><g stroke-linejoin="bevel" stroke-opacity="0.0" fill-opacity="1.0" stroke="rgb(0,0,0)" stroke-width="0.0" fill="rgb(0,0,0)" stroke-linecap="butt" stroke-miterlimit="10.0"><path d="M 630.6933,590.0000 ZM 631.4076,588.6134 c 0.3046,0.3151 0.7090,0.5567 0.7090 0.5567c 0.4044,0.2416 1.0032,0.2416 1.0032 0.2416c 0.6092,0.0000 0.9979,-0.3309 0.9979 -0.3309c 0.3887,-0.3309 0.3887,-0.8981 0.3887 -0.8981c 0.0000,-0.2941 -0.1103,-0.5410 -0.1103 -0.5410c -0.1103,-0.2468 -0.3624,-0.4254 -0.3624 -0.4254c -0.2521,-0.1786 -0.6618,-0.2731 -0.6618 -0.2731c -0.4097,-0.0945 -1.0084,-0.0945 -1.0084 -0.0945v -0.6618 c 0.5357,0.0000 0.8981,-0.0945 0.8981 -0.0945c 0.3624,-0.0945 0.5882,-0.2626 0.5882 -0.2626c 0.2258,-0.1681 0.3204,-0.3992 0.3204 -0.3992c 0.0945,-0.2311 0.0945,-0.4937 0.0945 -0.4937c 0.0000,-0.4937 -0.3099,-0.7773 -0.3099 -0.7773c -0.3099,-0.2836 -0.8456,-0.2836 -0.8456 -0.2836c -0.4202,-0.0000 -0.7721,0.1891 -0.7721 0.1891c -0.3519,0.1891 -0.6565,0.4937 -0.6565 0.4937l -0.4622,-0.5462 c 0.3887,-0.3676 0.8561,-0.6040 0.8561 -0.6040c 0.4674,-0.2363 1.0662,-0.2363 1.0662 -0.2363c 0.4412,0.0000 0.8088,0.1155 0.8088 0.1155c 0.3676,0.1155 0.6355,0.3309 0.6355 0.3309c 0.2679,0.2153 0.4149,0.5305 0.4149 0.5305c 0.1471,0.3151 0.1471,0.7248 0.1471 0.7248c 0.0000,0.6092 -0.3361,0.9979 -0.3361 0.9979c -0.3361,0.3887 -0.8824,0.5987 -0.8824 0.5987v 0.0420 c 0.3046,0.0735 0.5672,0.2153 0.5672 0.2153c 0.2626,0.1418 0.4622,0.3571 0.4622 0.3571c 0.1996,0.2153 0.3099,0.4989 0.3099 0.4989c 0.1103,0.2836 0.1103,0.6303 0.1103 0.6303c 0.0000,0.4412 -0.1733,0.7983 -0.1733 0.7983c -0.1733,0.3571 -0.4727,0.6040 -0.4727 0.6040c -0.2994,0.2468 -0.6985,0.3782 -0.6985 0.3782c -0.3992,0.1313 -0.8613,0.1313 -0.8613 0.1313c -0.3992,-0.0000 -0.7300,-0.0788 -0.7300 -0.0788c -0.3309,-0.0788 -0.6040,-0.2101 -0.6040 -0.2101c -0.2731,-0.1313 -0.4884,-0.2994 -0.4884 -0.2994c -0.2153,-0.1681 -0.3834,-0.3571 -0.3834 -0.3571ZM 635.9139,590.0000 ZM 638.7290,589.4433 c 0.2521,0.0000 0.4622,-0.1050 0.4622 -0.1050c 0.2101,-0.1050 0.3676,-0.2994 0.3676 -0.2994c 0.1576,-0.1943 0.2468,-0.4622 0.2468 -0.4622c 0.0893,-0.2679 0.0893,-0.6040 0.0893 -0.6040c 0.0000,-0.6618 -0.3046,-1.0399 -0.3046 -1.0399c -0.3046,-0.3782 -0.9349,-0.3782 -0.9349 -0.3782c -0.3151,-0.0000 -0.6880,0.2048 -0.6880 0.2048c -0.3729,0.2048 -0.7090,0.6775 -0.7090 0.6775c 0.0840,0.9874 0.4569,1.4968 0.4569 1.4968c 0.3729,0.5095 1.0137,0.5095 1.0137 0.5095ZM 638.7290,589.4433 ZM 640.1050,584.4223 c -0.2101,-0.2416 -0.4989,-0.3834 -0.4989 -0.3834c -0.2889,-0.1418 -0.6040,-0.1418 -0.6040 -0.1418c -0.3466,-0.0000 -0.6618,0.1471 -0.6618 0.1471c -0.3151,0.1471 -0.5567,0.4832 -0.5567 0.4832c -0.2416,0.3361 -0.3887,0.8771 -0.3887 0.8771c -0.1471,0.5410 -0.1576,1.3393 -0.1576 1.3393c 0.3151,-0.3887 0.7353,-0.6145 0.7353 -0.6145c 0.4202,-0.2258 0.8298,-0.2258 0.8298 -0.2258c 0.8718,0.0000 1.3918,0.5147 1.3918 0.5147c 0.5200,0.5147 0.5200,1.5546 0.5200 1.5546c 0.0000,0.4832 -0.1576,0.8771 -0.1576 0.8771c -0.1576,0.3939 -0.4307,0.6775 -0.4307 0.6775c -0.2731,0.2836 -0.6303,0.4412 -0.6303 0.4412c -0.3571,0.1576 -0.7668,0.1576 -0.7668 0.1576c -0.4937,-0.0000 -0.9139,-0.1996 -0.9139 -0.1996c -0.4202,-0.1996 -0.7300,-0.6040 -0.7300 -0.6040c -0.3099,-0.4044 -0.4884,-1.0084 -0.4884 -1.0084c -0.1786,-0.6040 -0.1786,-1.4128 -0.1786 -1.4128c 0.0000,-1.0084 0.2101,-1.7174 0.2101 -1.7174c 0.2101,-0.7090 0.5672,-1.1555 0.5672 -1.1555c 0.3571,-0.4464 0.8141,-0.6513 0.8141 -0.6513c 0.4569,-0.2048 0.9611,-0.2048 0.9611 -0.2048c 0.5462,0.0000 0.9401,0.2048 0.9401 0.2048c 0.3939,0.2048 0.6775,0.5095 0.6775 0.5095Z"/></g><g stroke-linejoin="bevel" stroke-opacity="0.0" fill-opacity="1.0" stroke="rgb(0,0,0)" stroke-width="0.0" fill="rgb(0,0,0)" stroke-linecap="butt" stroke-miterlimit="10.0"><path d="M 780.2626,590.0000 ZM 780.9769,588.6134 c 0.3046,0.3151 0.7090,0.5567 0.7090 0.5567c 0.4044,0.2416 1.0032,0.2416 1.0032 0.2416c 0.6092,0.0000 0.9979,-0.3309 0.9979 -0.3309c 0.3887,-0.3309 0.3887,-0.8981 0.3887 -0.8981c 0.0000,-0.2941 -0.1103,-0.5410 -0.1103 -0.5410c -0.1103,-0.2468 -0.3624,-0.4254 -0.3624 -0.4254c -0.2521,-0.1786 -0.6618,-0.2731 -0.6618 -0.2731c -0.4097,-0.0945 -1.0084,-0.0945 -1.0084 -0.0945v -0.6618 c 0.5357,0.0000 0.8981,-0.0945 0.8981 -0.0945c 0.3624,-0.0945 0.5882,-0.2626 0.5882 -0.2626c 0.2258,-0.1681 0.3204,-0.3992 0.3204 -0.3992c 0.0945,-0.2311 0.0945,-0.4937 0.0945 -0.4937c 0.0000,-0.4937 -0.3099,-0.7773 -0.3099 -0.7773c -0.3099,-0.2836 -0.8456,-0.2836 -0.8456 -0.2836c -0.4202,-0.0000 -0.7721,0.1891 -0.7721 0.1891c -0.3519,0.1891 -0.6565,0.4937 -0.6565 0.4937l -0.4622,-0.5462 c 0.3887,-0.3676 0.8561,-0.6040 0.8561 -0.6040c 0.4674,-0.2363 1.0662,-0.2363 1.0662 -0.2363c 0.4412,0.0000 0.8088,0.1155 0.8088 0.1155c 0.3676,0.1155 0.6355,0.3309 0.6355 0.3309c 0.2679,0.2153 0.4149,0.5305 0.4149 0.5305c 0.1471,0.3151 0.1471,0.7248 0.1471 0.7248c 0.0000,0.6092 -0.3361,0.9979 -0.3361 0.9979c -0.3361,0.3887 -0.8824,0.5987 -0.8824 0.5987v 0.0420 c 0.3046,0.0735 0.5672,0.2153 0.5672 0.2153c 0.2626,0.1418 0.4622,0.3571 0.4622 0.3571c 0.1996,0.2153 0.3099,0.4989 0.3099 0.4989c 0.1103,0.2836 0.1103,0.6303 0.1103 0.6303c 0.0000,0.4412 -0.1733,0.7983 -0.1733 0.7983c -0.1733,0.3571 -0.4727,0.6040 -0.4727 0.6040c -0.2994,0.2468 -0.6985,0.3782 -0.6985 0.3782c -0.3992,0.1313 -0.8613,0.1313 -0.8613 0.1313c -0.3992,-0.0000 -0.7300,-0.0788 -0.7300 -0.0788c -0.3309,-0.0788 -0.6040,-0.2101 -0.6040 -0.2101c -0.2731,-0.1313 -0.4884,-0.2994 -0.4884 -0.2994c -0.2153,-0.1681 -0.3834,-0.3571 -0.3834 -0.3571ZM 785.4832,590.0000 ZM 786.6912,588.2038 c 0.0000,0.2836 0.1103,0.5147 0.1103 0.5147c 0.1103,0.2311 0.3046,0.4044 0.3046 0.4044c 0.1943,0.1733 0.4569,0.2679 0.4569 0.2679c 0.2626,0.0945 0.5672,0.0945 0.5672 0.0945c 0.5882,0.0000 0.9506,-0.3256 0.9506 -0.3256c 0.3624,-0.3256 0.3624,-0.8508 0.3624 -0.8508c 0.0000,-0.3256 -0.1471,-0.5567 -0.1471 -0.5567c -0.1471,-0.2311 -0.3992,-0.4044 -0.3992 -0.4044c -0.2521,-0.1733 -0.5830,-0.3151 -0.5830 -0.3151c -0.3309,-0.1418 -0.6880,-0.2889 -0.6880 -0.2889c -0.3992,0.2731 -0.6670,0.6355 -0.6670 0.6355c -0.2679,0.3624 -0.2679,0.8246 -0.2679 0.8246ZM 786.6912,588.2038 ZM 788.5819,586.3445 c 0.3361,-0.3046 0.5200,-0.6408 0.5200 -0.6408c 0.1838,-0.3361 0.1838,-0.7038 0.1838 -0.7038c 0.0000,-0.5042 -0.3046,-0.8456 -0.3046 -0.8456c -0.3046,-0.3414 -0.8613,-0.3414 -0.8613 -0.3414c -0.4727,-0.0000 -0.7773,0.2941 -0.7773 0.2941c -0.3046,0.2941 -0.3046,0.7878 -0.3046 0.7878c 0.0000,0.3046 0.1261,0.5200 0.1261 0.5200c 0.1261,0.2153 0.3414,0.3834 0.3414 0.3834c 0.2153,0.1681 0.4937,0.2994 0.4937 0.2994c 0.2784,0.1313 0.5830,0.2468 0.5830 0.2468ZM 788.5819,586.3445 ZM 785.9139,588.2878 c 0.0000,-0.3256 0.1103,-0.6040 0.1103 -0.6040c 0.1103,-0.2784 0.2836,-0.5042 0.2836 -0.5042c 0.1733,-0.2258 0.3992,-0.3992 0.3992 -0.3992c 0.2258,-0.1733 0.4674,-0.2994 0.4674 -0.2994v -0.0420 c -0.3676,-0.2626 -0.6513,-0.6355 -0.6513 -0.6355c -0.2836,-0.3729 -0.2836,-0.9086 -0.2836 -0.9086c 0.0000,-0.3887 0.1471,-0.7038 0.1471 -0.7038c 0.1471,-0.3151 0.3992,-0.5410 0.3992 -0.5410c 0.2521,-0.2258 0.5987,-0.3519 0.5987 -0.3519c 0.3466,-0.1261 0.7563,-0.1261 0.7563 -0.1261c 0.4412,0.0000 0.7878,0.1313 0.7878 0.1313c 0.3466,0.1313 0.5935,0.3676 0.5935 0.3676c 0.2468,0.2363 0.3782,0.5672 0.3782 0.5672c 0.1313,0.3309 0.1313,0.7195 0.1313 0.7195c 0.0000,0.2626 -0.0893,0.5042 -0.0893 0.5042c -0.0893,0.2416 -0.2206,0.4517 -0.2206 0.4517c -0.1313,0.2101 -0.2941,0.3782 -0.2941 0.3782c -0.1628,0.1681 -0.3204,0.2836 -0.3204 0.2836v 0.0420 c 0.2206,0.1261 0.4307,0.2889 0.4307 0.2889c 0.2101,0.1628 0.3729,0.3676 0.3729 0.3676c 0.1628,0.2048 0.2626,0.4674 0.2626 0.4674c 0.0998,0.2626 0.0998,0.5987 0.0998 0.5987c 0.0000,0.3782 -0.1576,0.7038 -0.1576 0.7038c -0.1576,0.3256 -0.4412,0.5672 -0.4412 0.5672c -0.2836,0.2416 -0.6828,0.3782 -0.6828 0.3782c -0.3992,0.1366 -0.8824,0.1366 -0.8824 0.1366c -0.4727,-0.0000 -0.8771,-0.1366 -0.8771 -0.1366c -0.4044,-0.1366 -0.6933,-0.3834 -0.6933 -0.3834c -0.2889,-0.2468 -0.4569,-0.5830 -0.4569 -0.5830c -0.1681,-0.3361 -0.1681,-0.7353 -0.1681 -0.7353Z"/></g></svg>